<svg id="svg" version="1.1" width="400" height="400" viewBox="0 0 400 400" xmlns="http://www.w3.org/2000/svg" xmlns:xlink="http://www.w3.org/1999/xlink" ><g id="svgg"><path id="path0" d="M218.200 69.460 C 217.540 69.537,215.290 69.790,213.200 70.023 C 208.416 70.556,202.508 71.517,201.200 71.975 C 200.650 72.167,198.850 72.625,197.200 72.992 C 165.991 79.942,134.797 102.490,117.505 130.600 C 114.962 134.734,111.600 140.761,111.600 141.186 C 111.600 141.539,116.991 143.179,123.320 144.750 L 128.039 145.922 128.953 144.461 C 129.455 143.658,130.378 142.100,131.003 141.000 C 149.737 108.036,188.944 86.085,228.800 86.246 C 303.205 86.547,356.830 156.492,338.201 228.941 C 337.474 231.768,336.715 234.245,336.514 234.446 C 336.294 234.666,331.929 233.861,325.542 232.425 C 302.569 227.257,303.103 227.282,299.456 231.182 C 292.145 238.997,307.534 246.997,349.000 256.939 C 372.161 262.492,391.535 263.600,395.436 259.594 C 395.856 259.163,396.546 258.448,396.970 258.005 C 397.915 257.017,398.287 256.991,398.524 257.900 C 398.640 258.344,398.724 258.209,398.754 257.532 C 398.845 255.439,396.478 252.264,393.613 250.635 C 392.176 249.818,389.946 248.531,388.657 247.775 C 387.369 247.019,386.120 246.400,385.881 246.400 C 385.642 246.400,383.277 245.610,380.624 244.645 C 377.971 243.680,373.280 242.131,370.200 241.202 C 367.120 240.274,364.496 239.348,364.368 239.144 C 364.046 238.630,362.800 239.167,362.800 239.819 C 362.800 240.113,362.626 240.460,362.414 240.591 C 362.109 240.780,353.669 238.965,353.307 238.633 C 353.256 238.586,353.574 237.299,354.013 235.774 C 354.896 232.710,356.114 227.499,356.812 223.800 C 357.061 222.480,357.433 220.631,357.640 219.691 C 357.847 218.751,358.280 214.881,358.603 211.091 C 364.702 139.488,312.078 76.896,239.658 69.616 C 235.869 69.236,221.051 69.127,218.200 69.460 M47.200 104.000 C 47.200 104.220,47.605 104.397,48.100 104.394 C 48.828 104.389,48.885 104.314,48.400 104.000 C 47.624 103.499,47.200 103.499,47.200 104.000 M317.070 154.556 C 315.568 157.470,313.095 161.912,311.573 164.427 C 310.051 166.942,308.683 169.270,308.533 169.600 C 305.464 176.360,287.758 198.784,276.130 210.637 C 268.237 218.683,252.277 232.400,250.808 232.400 C 250.558 232.400,250.448 232.554,250.564 232.742 C 250.873 233.241,249.756 234.162,242.044 239.761 C 221.087 254.979,195.596 268.756,166.088 280.812 C 162.726 282.185,160.037 283.371,160.112 283.446 C 160.402 283.735,180.640 279.259,185.800 277.764 C 186.900 277.445,191.490 276.188,196.000 274.970 C 205.895 272.298,214.797 269.638,220.200 267.738 C 222.400 266.964,226.180 265.639,228.600 264.793 C 264.500 252.242,292.223 236.029,305.197 220.000 C 311.953 211.652,317.033 196.845,319.397 178.609 C 320.119 173.039,320.598 155.339,320.124 151.729 L 319.800 149.259 317.070 154.556 M90.284 159.357 C 102.478 168.538,106.612 172.152,119.450 184.856 L 127.899 193.217 126.850 193.959 C 125.147 195.162,119.460 197.911,114.665 199.849 C 112.209 200.842,109.660 201.895,109.000 202.189 C 108.340 202.483,103.700 204.116,98.689 205.818 C 93.678 207.519,89.668 209.002,89.779 209.112 C 90.320 209.654,106.305 207.071,114.349 205.143 C 133.654 200.515,146.184 194.295,148.886 188.000 C 150.900 183.307,151.346 173.752,149.896 166.400 L 149.382 163.800 148.059 167.600 C 145.794 174.100,140.026 183.936,138.451 183.984 C 138.149 183.993,136.349 182.947,134.451 181.660 C 131.012 179.329,124.280 175.080,118.200 171.403 C 110.322 166.639,85.040 154.000,83.390 154.000 C 83.268 154.000,86.370 156.411,90.284 159.357 M148.000 192.027 C 148.000 192.261,147.550 193.043,147.000 193.764 C 145.895 195.213,145.742 196.104,146.500 196.686 C 147.060 197.117,146.837 197.051,164.800 202.063 C 171.950 204.057,179.240 206.104,181.000 206.610 C 189.444 209.040,198.830 211.695,205.000 213.399 C 208.740 214.432,213.600 215.816,215.800 216.474 C 219.837 217.682,222.777 218.513,234.800 221.848 C 238.430 222.854,243.509 224.290,246.086 225.039 C 251.317 226.558,253.480 226.704,255.727 225.690 C 257.442 224.915,262.730 220.450,262.772 219.740 C 262.805 219.192,262.566 219.136,246.200 215.835 C 239.160 214.415,232.140 212.978,230.600 212.641 C 229.060 212.305,226.090 211.657,224.000 211.201 C 221.910 210.745,216.330 209.580,211.600 208.612 C 198.085 205.845,189.949 204.105,182.600 202.411 C 178.860 201.548,171.570 199.922,166.400 198.796 C 161.230 197.670,156.579 196.647,156.064 196.522 C 155.549 196.397,153.703 195.239,151.962 193.948 C 148.806 191.608,148.000 191.217,148.000 192.027 M149.400 199.790 C 149.620 199.895,153.622 201.153,158.294 202.586 C 162.965 204.020,169.985 206.258,173.894 207.559 C 188.844 212.535,203.691 217.242,203.870 217.063 C 203.973 216.961,201.029 215.890,197.328 214.684 C 193.628 213.478,188.800 211.854,186.600 211.075 C 184.400 210.295,177.470 207.998,171.200 205.970 C 164.930 203.943,159.614 202.140,159.386 201.964 C 158.754 201.477,153.252 200.072,151.000 199.822 C 149.900 199.701,149.180 199.686,149.400 199.790 M23.203 214.300 C 23.205 214.465,23.677 214.818,24.252 215.085 C 25.274 215.560,25.282 215.553,24.587 214.785 C 23.865 213.988,23.197 213.754,23.203 214.300 M207.200 218.315 C 207.200 218.488,208.955 219.196,211.100 219.887 C 227.254 225.094,230.188 226.004,230.494 225.902 C 230.684 225.839,228.356 224.988,225.320 224.013 C 222.284 223.037,219.740 222.095,219.667 221.919 C 219.593 221.744,219.287 221.600,218.987 221.600 C 218.686 221.600,216.062 220.790,213.156 219.800 C 207.604 217.908,207.200 217.808,207.200 218.315 M234.400 227.363 C 234.400 227.621,239.285 229.203,239.978 229.170 C 240.320 229.154,239.350 228.704,237.822 228.170 C 235.063 227.206,234.400 227.050,234.400 227.363 M319.600 255.010 C 321.690 255.759,323.625 256.379,323.900 256.386 C 324.175 256.394,324.400 256.580,324.400 256.800 C 324.400 257.020,324.659 257.200,324.976 257.200 C 328.390 257.200,315.421 274.212,304.400 284.191 C 281.323 305.085,250.518 315.593,219.719 313.078 C 195.193 311.075,169.270 300.379,154.325 286.096 C 153.015 284.844,151.267 284.161,138.725 279.995 C 130.956 277.416,123.627 274.913,122.438 274.434 L 120.277 273.563 121.338 274.982 C 121.922 275.762,122.890 277.075,123.488 277.900 C 143.017 304.821,176.621 324.859,209.800 329.369 C 262.309 336.505,314.965 311.201,340.817 266.408 C 343.177 262.319,342.854 262.448,347.810 263.625 C 352.277 264.686,352.666 264.371,348.318 263.214 C 343.412 261.909,331.155 258.259,323.346 255.778 C 315.613 253.321,313.925 252.975,319.600 255.010 M240.000 340.000 C 240.000 340.220,240.270 340.400,240.600 340.400 C 240.930 340.400,241.200 340.220,241.200 340.000 C 241.200 339.780,240.930 339.600,240.600 339.600 C 240.270 339.600,240.000 339.780,240.000 340.000 M223.808 340.388 C 223.646 340.649,224.247 340.800,225.443 340.800 C 227.610 340.800,227.638 340.621,225.531 340.241 C 224.661 340.084,223.959 340.144,223.808 340.388 M230.200 340.400 C 229.179 340.660,229.317 340.712,231.124 340.753 C 232.448 340.782,233.154 340.650,233.000 340.400 C 232.723 339.951,231.964 339.951,230.200 340.400 " stroke="none" fill="#f9f8f8" fill-rule="evenodd"></path><path id="path1" d="M218.983 86.834 C 189.710 88.949,160.568 103.986,141.675 126.723 C 135.461 134.202,128.800 144.048,128.800 145.756 C 128.800 146.735,144.480 149.741,157.200 151.200 C 159.070 151.415,162.760 151.845,165.400 152.157 C 168.040 152.468,172.810 152.925,176.000 153.172 C 179.190 153.418,183.960 153.801,186.600 154.023 C 200.985 155.228,250.573 155.535,253.257 154.436 C 253.776 154.223,258.070 153.853,262.800 153.613 C 270.825 153.206,283.705 152.175,293.000 151.195 C 295.200 150.963,298.710 150.596,300.800 150.379 C 302.890 150.161,305.860 149.819,307.400 149.617 C 308.940 149.416,311.820 149.056,313.800 148.817 C 315.780 148.579,317.977 148.279,318.682 148.151 C 320.500 147.820,320.524 148.044,320.292 163.114 C 320.007 181.602,317.665 195.677,313.190 205.800 C 310.275 212.392,308.266 216.730,307.786 217.469 C 307.476 217.947,306.427 219.857,305.456 221.715 C 304.484 223.572,303.380 225.564,303.001 226.142 C 302.177 227.401,301.550 227.150,309.600 228.778 C 319.617 230.803,330.804 233.158,333.560 233.822 C 336.924 234.633,337.101 234.304,339.390 223.015 C 345.732 191.746,339.560 162.188,320.853 134.226 C 299.821 102.790,259.265 83.922,218.983 86.834 M280.200 247.225 C 278.000 248.583,275.390 250.146,274.400 250.698 C 273.410 251.250,271.586 252.308,270.348 253.051 C 269.109 253.793,267.894 254.400,267.648 254.400 C 267.401 254.400,267.200 254.580,267.200 254.800 C 267.200 255.020,266.862 255.200,266.449 255.200 C 266.036 255.200,265.474 255.470,265.200 255.800 C 264.926 256.130,264.498 256.400,264.248 256.400 C 263.998 256.400,262.935 256.857,261.885 257.416 C 260.835 257.975,259.801 258.324,259.588 258.193 C 259.375 258.061,259.200 258.173,259.200 258.443 C 259.200 258.713,259.089 258.822,258.952 258.686 C 258.816 258.550,258.443 258.700,258.124 259.019 C 257.804 259.339,257.200 259.600,256.781 259.600 C 256.362 259.600,255.430 259.959,254.710 260.399 C 253.989 260.838,253.090 261.198,252.712 261.199 C 252.334 261.199,251.434 261.531,250.712 261.936 C 249.990 262.340,248.294 263.053,246.941 263.521 C 245.589 263.988,243.339 264.814,241.941 265.356 C 239.190 266.423,232.008 268.729,225.000 270.796 C 222.580 271.509,220.240 272.239,219.800 272.418 C 217.179 273.481,193.640 278.917,188.200 279.715 C 187.540 279.812,185.650 280.181,184.000 280.536 C 182.350 280.890,179.200 281.469,177.000 281.823 C 174.800 282.177,172.100 282.617,171.000 282.801 C 164.609 283.872,160.696 284.383,160.379 284.187 C 160.181 284.064,159.249 284.176,158.309 284.434 C 157.369 284.693,156.015 284.886,155.300 284.864 C 153.646 284.814,153.662 284.896,155.653 286.701 C 161.912 292.375,174.348 300.013,184.000 304.110 C 234.050 325.356,292.579 307.825,322.571 262.603 C 325.799 257.735,325.807 257.784,321.600 256.310 C 319.730 255.655,315.140 253.982,311.400 252.593 C 300.021 248.367,289.426 245.109,286.400 244.905 C 284.297 244.763,284.024 244.865,280.200 247.225 " stroke="none" fill="#eb3434" fill-rule="evenodd"></path><path id="path2" d="M217.800 60.023 C 212.032 60.468,202.713 61.788,199.400 62.630 C 198.080 62.965,196.730 63.255,196.400 63.274 C 196.070 63.293,195.577 63.485,195.305 63.699 C 195.033 63.914,194.550 63.989,194.231 63.867 C 193.912 63.745,193.587 63.839,193.508 64.076 C 193.429 64.313,192.788 64.528,192.083 64.553 C 191.378 64.579,190.801 64.747,190.801 64.927 C 190.800 65.107,190.440 65.140,190.000 65.000 C 189.510 64.844,189.200 64.928,189.200 65.216 C 189.200 65.474,188.930 65.582,188.600 65.455 C 188.270 65.329,188.000 65.419,188.000 65.655 C 188.000 65.892,187.736 65.984,187.413 65.860 C 187.090 65.736,186.712 65.819,186.572 66.045 C 186.433 66.270,186.067 66.358,185.760 66.240 C 185.452 66.122,185.200 66.219,185.200 66.455 C 185.200 66.693,184.901 66.771,184.532 66.629 C 184.165 66.488,183.743 66.568,183.596 66.806 C 183.449 67.045,182.939 67.269,182.464 67.305 C 181.989 67.341,181.600 67.531,181.600 67.728 C 181.600 67.925,181.330 67.982,181.000 67.855 C 180.670 67.729,180.400 67.819,180.400 68.055 C 180.400 68.292,180.130 68.382,179.800 68.255 C 179.470 68.129,179.200 68.219,179.200 68.455 C 179.200 68.692,178.930 68.782,178.600 68.655 C 178.270 68.529,178.000 68.577,178.000 68.762 C 178.000 68.948,176.200 69.775,174.000 70.600 C 171.800 71.425,170.000 72.288,170.000 72.517 C 170.000 72.746,169.884 72.817,169.742 72.675 C 169.600 72.533,167.820 73.304,165.787 74.387 C 163.753 75.470,161.979 76.246,161.845 76.111 C 161.710 75.977,161.600 76.087,161.600 76.357 C 161.600 76.627,161.420 76.736,161.200 76.600 C 160.980 76.464,160.800 76.554,160.800 76.800 C 160.800 77.046,160.631 77.143,160.425 77.015 C 160.218 76.888,159.864 77.102,159.637 77.492 C 159.410 77.881,159.216 78.020,159.206 77.800 C 159.195 77.567,159.065 77.585,158.894 77.842 C 158.515 78.412,152.137 82.400,151.604 82.400 C 151.382 82.400,151.200 82.580,151.200 82.800 C 151.200 83.020,150.949 83.200,150.643 83.200 C 150.336 83.200,149.978 83.481,149.846 83.825 C 149.714 84.169,149.443 84.350,149.245 84.228 C 149.046 84.105,148.781 84.274,148.654 84.602 C 148.528 84.931,148.149 85.200,147.813 85.200 C 147.476 85.200,147.200 85.350,147.200 85.533 C 147.200 85.716,145.625 86.964,143.700 88.306 C 141.775 89.648,139.740 91.183,139.177 91.717 C 137.138 93.655,136.719 93.731,131.174 93.182 C 127.579 92.826,124.005 92.773,119.131 93.001 C 115.319 93.180,110.580 93.388,108.600 93.463 C 106.620 93.537,103.650 93.698,102.000 93.819 C 100.350 93.939,97.965 94.050,96.700 94.064 C 95.413 94.078,94.400 94.269,94.400 94.499 C 94.400 94.755,93.723 94.816,92.600 94.662 C 91.401 94.498,90.800 94.563,90.800 94.859 C 90.800 95.151,90.263 95.216,89.224 95.050 C 88.239 94.893,87.545 94.965,87.374 95.242 C 87.204 95.518,86.512 95.592,85.550 95.438 C 84.545 95.278,84.000 95.344,84.000 95.627 C 84.000 95.904,83.561 95.967,82.800 95.800 C 81.985 95.621,81.600 95.691,81.600 96.018 C 81.600 96.340,81.202 96.420,80.400 96.260 C 79.674 96.115,79.200 96.186,79.200 96.442 C 79.200 96.702,78.741 96.763,78.000 96.600 C 77.189 96.422,76.800 96.491,76.800 96.815 C 76.800 97.111,76.415 97.220,75.790 97.100 C 75.235 96.994,74.676 97.078,74.547 97.286 C 74.418 97.494,73.882 97.557,73.356 97.425 C 72.768 97.277,72.400 97.360,72.400 97.639 C 72.400 97.896,72.053 98.003,71.600 97.884 C 71.160 97.769,70.800 97.858,70.800 98.081 C 70.800 98.314,70.375 98.380,69.800 98.236 C 69.173 98.078,68.800 98.154,68.800 98.439 C 68.800 98.708,68.392 98.815,67.800 98.702 C 67.250 98.597,66.800 98.658,66.800 98.837 C 66.800 99.017,66.125 99.287,65.300 99.438 C 62.654 99.922,51.958 103.137,51.369 103.626 C 51.056 103.885,50.800 103.964,50.800 103.800 C 50.800 103.636,50.558 103.703,50.263 103.948 C 49.968 104.193,49.608 104.275,49.463 104.130 C 49.318 103.985,49.200 104.096,49.200 104.376 C 49.200 104.665,48.940 104.786,48.600 104.655 C 48.270 104.529,48.000 104.599,48.000 104.813 C 48.000 105.026,47.865 105.172,47.700 105.138 C 47.535 105.103,46.772 105.357,46.004 105.702 C 45.236 106.046,44.471 106.244,44.304 106.141 C 44.137 106.037,44.000 106.163,44.000 106.419 C 44.000 106.676,43.730 106.782,43.400 106.655 C 43.070 106.529,42.800 106.610,42.800 106.836 C 42.800 107.062,42.620 107.136,42.400 107.000 C 42.180 106.864,42.000 106.973,42.000 107.243 C 42.000 107.513,41.889 107.622,41.752 107.486 C 41.616 107.350,41.242 107.501,40.920 107.823 C 40.599 108.144,40.170 108.305,39.968 108.180 C 39.765 108.055,39.600 108.136,39.600 108.360 C 39.600 108.584,38.880 108.984,38.000 109.247 C 37.120 109.511,36.400 109.841,36.400 109.981 C 36.400 110.122,35.185 110.854,33.700 111.609 C 32.215 112.365,30.940 113.123,30.866 113.294 C 30.792 113.465,30.566 113.502,30.363 113.377 C 30.160 113.252,29.886 113.431,29.754 113.775 C 29.622 114.119,29.279 114.400,28.991 114.400 C 28.702 114.400,28.407 114.557,28.333 114.748 C 28.260 114.939,26.795 116.045,25.079 117.206 C 23.362 118.366,21.086 120.100,20.020 121.058 C 18.954 122.016,17.918 122.800,17.716 122.800 C 17.269 122.800,15.267 124.852,14.650 125.944 C 14.402 126.381,13.363 127.698,12.341 128.870 C 11.319 130.041,9.568 132.530,8.451 134.400 C 7.334 136.270,6.231 138.021,6.001 138.292 C 5.771 138.563,5.613 138.833,5.650 138.892 C 5.843 139.203,5.089 140.800,4.749 140.800 C 4.531 140.800,4.464 140.980,4.600 141.200 C 4.736 141.420,4.646 141.600,4.400 141.600 C 4.154 141.600,4.064 141.780,4.200 142.000 C 4.336 142.220,4.246 142.400,4.000 142.400 C 3.754 142.400,3.669 142.588,3.811 142.818 C 3.953 143.047,3.866 143.480,3.618 143.779 C 1.124 146.784,-0.426 162.347,0.967 170.400 C 1.838 175.436,2.819 179.343,3.288 179.645 C 3.497 179.779,3.653 180.004,3.634 180.145 C 3.615 180.285,3.623 180.490,3.650 180.600 C 3.678 180.710,3.745 180.980,3.800 181.200 C 3.855 181.420,3.945 181.690,4.000 181.800 C 4.055 181.910,4.130 182.135,4.167 182.300 C 4.204 182.465,4.630 183.475,5.114 184.543 C 5.598 185.612,5.894 186.647,5.773 186.843 C 5.652 187.040,5.754 187.200,6.000 187.200 C 6.246 187.200,6.336 187.380,6.200 187.600 C 6.064 187.820,6.154 188.000,6.400 188.000 C 6.646 188.000,6.736 188.180,6.600 188.400 C 6.464 188.620,6.554 188.800,6.800 188.800 C 7.046 188.800,7.136 188.980,7.000 189.200 C 6.864 189.420,6.954 189.600,7.200 189.600 C 7.446 189.600,7.536 189.780,7.400 190.000 C 7.264 190.220,7.354 190.400,7.600 190.400 C 7.846 190.400,7.945 190.565,7.821 190.766 C 7.697 190.967,7.755 191.192,7.951 191.266 C 8.147 191.340,9.067 192.840,9.995 194.600 C 10.924 196.360,12.385 198.717,13.242 199.837 C 14.099 200.957,14.800 202.067,14.800 202.304 C 14.800 202.540,14.961 202.793,15.158 202.867 C 15.536 203.007,20.400 209.454,20.400 209.814 C 20.400 209.930,21.030 210.578,21.800 211.254 C 22.570 211.930,23.200 212.734,23.200 213.041 C 23.200 213.349,23.353 213.600,23.540 213.600 C 23.965 213.600,34.000 223.664,34.000 224.089 C 34.000 224.260,34.225 224.406,34.500 224.413 C 35.083 224.427,37.200 226.210,37.200 226.686 C 37.200 226.864,37.542 227.188,37.959 227.405 C 39.273 228.088,44.400 232.415,44.400 232.841 C 44.400 233.064,44.573 233.140,44.785 233.009 C 44.997 232.878,45.506 233.106,45.916 233.516 C 46.326 233.926,46.962 234.377,47.331 234.518 C 47.699 234.659,48.000 234.961,48.000 235.187 C 48.000 235.414,48.261 235.600,48.580 235.600 C 48.899 235.600,49.304 235.828,49.480 236.107 C 49.656 236.385,51.387 237.670,53.326 238.961 C 55.265 240.253,57.089 241.546,57.378 241.836 C 57.668 242.125,57.988 242.279,58.090 242.177 C 58.191 242.075,58.753 242.435,59.337 242.977 C 59.922 243.519,60.406 243.835,60.413 243.681 C 60.420 243.526,60.690 243.749,61.013 244.176 C 61.336 244.604,61.600 244.822,61.600 244.662 C 61.600 244.501,62.635 245.071,63.900 245.928 C 65.165 246.786,67.235 248.069,68.500 248.782 C 69.765 249.494,70.800 250.269,70.800 250.505 C 70.800 250.741,70.918 250.816,71.062 250.672 C 71.377 250.356,76.800 253.225,76.800 253.708 C 76.800 253.894,76.980 253.936,77.200 253.800 C 77.420 253.664,77.600 253.754,77.600 254.000 C 77.600 254.246,77.780 254.336,78.000 254.200 C 78.220 254.064,78.400 254.154,78.400 254.400 C 78.400 254.646,78.580 254.736,78.800 254.600 C 79.020 254.464,79.200 254.513,79.200 254.710 C 79.200 254.906,79.425 255.071,79.700 255.075 C 79.975 255.080,81.340 255.758,82.733 256.581 C 84.126 257.404,87.004 258.884,89.129 259.870 C 91.253 260.856,93.083 261.784,93.196 261.931 C 93.308 262.079,93.670 262.251,94.000 262.314 C 95.227 262.546,96.800 263.309,96.800 263.672 C 96.800 263.878,96.980 263.936,97.200 263.800 C 97.420 263.664,97.600 263.738,97.600 263.964 C 97.600 264.190,97.870 264.271,98.200 264.145 C 98.530 264.018,98.800 264.124,98.800 264.381 C 98.800 264.637,98.980 264.736,99.200 264.600 C 99.420 264.464,99.600 264.554,99.600 264.800 C 99.600 265.046,99.780 265.136,100.000 265.000 C 100.220 264.864,100.400 264.954,100.400 265.200 C 100.400 265.446,100.535 265.565,100.700 265.465 C 101.128 265.205,105.644 267.423,105.328 267.738 C 105.184 267.882,105.287 268.000,105.557 268.000 C 105.827 268.000,105.948 268.161,105.826 268.358 C 105.704 268.555,105.885 268.824,106.228 268.955 C 106.570 269.087,106.739 269.376,106.602 269.597 C 106.465 269.819,106.554 270.000,106.800 270.000 C 107.046 270.000,107.148 270.161,107.026 270.358 C 106.904 270.555,107.085 270.824,107.428 270.955 C 107.770 271.087,107.948 271.360,107.823 271.563 C 107.698 271.766,107.746 271.992,107.931 272.066 C 108.367 272.240,111.200 276.696,111.200 277.208 C 111.200 277.423,111.380 277.600,111.600 277.600 C 111.820 277.600,112.000 277.870,112.000 278.200 C 112.000 278.530,112.180 278.800,112.400 278.800 C 112.620 278.800,112.800 279.051,112.800 279.357 C 112.800 279.664,113.070 280.018,113.400 280.145 C 113.730 280.271,114.000 280.631,114.000 280.945 C 114.000 281.258,114.267 281.617,114.593 281.742 C 114.931 281.872,115.085 282.235,114.950 282.585 C 114.798 282.981,114.943 283.200,115.357 283.200 C 115.936 283.200,116.180 283.660,116.047 284.500 C 116.021 284.665,116.251 284.800,116.557 284.800 C 117.021 284.800,117.541 285.478,117.784 286.400 C 117.813 286.510,118.681 287.500,119.714 288.600 C 120.747 289.700,121.593 290.735,121.596 290.901 C 121.598 291.067,122.320 291.853,123.200 292.648 C 124.080 293.443,124.800 294.218,124.800 294.372 C 124.800 294.719,133.974 303.995,134.336 304.013 C 134.826 304.038,136.237 305.394,136.507 306.100 C 136.654 306.485,136.963 306.800,137.193 306.800 C 137.423 306.800,138.558 307.571,139.714 308.513 C 140.871 309.455,143.208 311.187,144.909 312.363 C 146.609 313.538,148.000 314.668,148.000 314.874 C 148.000 315.079,148.181 315.135,148.403 314.998 C 148.624 314.861,148.914 315.031,149.046 315.375 C 149.178 315.719,149.536 316.000,149.843 316.000 C 150.149 316.000,150.400 316.180,150.400 316.400 C 150.400 316.620,150.670 316.800,151.000 316.800 C 151.330 316.800,151.600 316.980,151.600 317.200 C 151.600 317.420,151.749 317.600,151.932 317.600 C 152.545 317.600,159.200 321.697,159.200 322.074 C 159.200 322.279,159.380 322.336,159.600 322.200 C 159.820 322.064,160.000 322.173,160.000 322.443 C 160.000 322.713,160.113 322.821,160.251 322.683 C 160.606 322.327,162.800 323.527,162.800 324.077 C 162.800 324.328,162.910 324.423,163.045 324.289 C 163.179 324.154,164.256 324.589,165.438 325.256 C 166.620 325.923,167.815 326.509,168.093 326.558 C 168.372 326.606,169.320 327.021,170.200 327.480 C 171.080 327.938,173.330 328.900,175.200 329.617 C 177.070 330.335,178.657 331.064,178.726 331.238 C 178.795 331.412,179.110 331.456,179.426 331.335 C 179.742 331.214,180.000 331.324,180.000 331.581 C 180.000 331.837,180.180 331.936,180.400 331.800 C 180.620 331.664,180.800 331.738,180.800 331.964 C 180.800 332.190,181.070 332.271,181.400 332.145 C 181.730 332.018,182.000 332.124,182.000 332.381 C 182.000 332.637,182.150 332.754,182.334 332.641 C 182.764 332.375,185.719 333.251,186.062 333.746 C 186.206 333.954,186.881 334.108,187.562 334.089 C 188.243 334.069,188.800 334.216,188.800 334.414 C 188.800 334.613,189.070 334.671,189.400 334.545 C 189.730 334.418,190.000 334.526,190.000 334.784 C 190.000 335.072,190.310 335.156,190.800 335.000 C 191.277 334.849,191.600 334.928,191.600 335.197 C 191.600 335.444,191.788 335.531,192.018 335.389 C 192.247 335.247,192.664 335.321,192.943 335.552 C 193.222 335.784,194.069 336.063,194.825 336.171 C 195.581 336.279,197.190 336.637,198.400 336.965 C 201.296 337.751,210.841 339.147,215.500 339.467 C 217.535 339.606,219.200 339.829,219.200 339.960 C 219.200 340.092,223.340 340.200,228.400 340.200 C 233.460 340.200,237.600 340.065,237.600 339.900 C 237.600 339.735,238.370 339.600,239.310 339.600 C 242.860 339.600,257.895 337.404,258.549 336.790 C 258.741 336.610,259.127 336.551,259.408 336.659 C 259.689 336.766,260.033 336.670,260.172 336.445 C 260.312 336.219,260.672 336.129,260.972 336.245 C 261.273 336.360,261.640 336.259,261.787 336.021 C 261.935 335.782,262.231 335.695,262.445 335.828 C 262.660 335.960,263.095 335.853,263.412 335.590 C 263.730 335.326,264.262 335.215,264.595 335.343 C 264.928 335.470,265.200 335.381,265.200 335.145 C 265.200 334.908,265.464 334.816,265.787 334.940 C 266.110 335.064,266.488 334.981,266.628 334.755 C 266.767 334.530,267.133 334.442,267.440 334.560 C 267.748 334.678,268.000 334.581,268.000 334.345 C 268.000 334.108,268.270 334.018,268.600 334.145 C 268.930 334.271,269.200 334.188,269.200 333.960 C 269.200 333.728,269.551 333.658,270.000 333.800 C 270.449 333.942,270.800 333.872,270.800 333.640 C 270.800 333.412,271.070 333.329,271.400 333.455 C 271.730 333.582,272.000 333.501,272.000 333.275 C 272.000 332.930,273.352 332.426,275.000 332.158 C 275.220 332.122,275.580 332.050,275.800 331.999 C 276.020 331.947,276.335 331.927,276.500 331.953 C 276.665 331.979,276.800 331.801,276.800 331.557 C 276.800 331.314,277.070 331.218,277.400 331.345 C 277.730 331.471,278.000 331.390,278.000 331.164 C 278.000 330.938,278.180 330.864,278.400 331.000 C 278.620 331.136,278.800 331.037,278.800 330.781 C 278.800 330.524,279.070 330.418,279.400 330.545 C 279.730 330.671,280.000 330.629,280.000 330.451 C 280.000 330.272,281.305 329.617,282.900 328.994 C 284.495 328.372,286.925 327.247,288.300 326.494 C 289.675 325.742,290.803 325.278,290.806 325.463 C 290.809 325.648,290.944 325.598,291.106 325.352 C 291.432 324.855,296.400 322.267,296.400 322.594 C 296.400 322.707,296.767 322.433,297.215 321.985 C 297.663 321.537,298.203 321.278,298.415 321.409 C 298.627 321.540,298.800 321.446,298.800 321.200 C 298.800 320.954,298.980 320.864,299.200 321.000 C 299.420 321.136,299.600 321.082,299.600 320.880 C 299.600 320.459,304.098 317.600,304.760 317.600 C 305.002 317.600,305.200 317.420,305.200 317.200 C 305.200 316.980,305.476 316.800,305.813 316.800 C 306.149 316.800,306.529 316.530,306.655 316.200 C 306.782 315.870,307.117 315.600,307.400 315.600 C 307.683 315.600,308.028 315.304,308.167 314.943 C 308.305 314.581,308.511 314.378,308.623 314.490 C 308.736 314.603,309.380 314.179,310.055 313.549 C 310.729 312.919,311.443 312.503,311.641 312.625 C 311.838 312.747,312.000 312.674,312.000 312.461 C 312.000 312.249,313.305 311.115,314.900 309.941 C 316.495 308.768,318.149 307.491,318.575 307.104 C 319.002 306.717,319.591 306.400,319.885 306.400 C 320.179 306.400,320.584 305.967,320.785 305.439 C 321.172 304.421,324.265 301.730,324.853 301.900 C 325.044 301.955,325.200 301.719,325.200 301.376 C 325.200 301.033,325.374 300.860,325.586 300.992 C 325.799 301.123,326.364 300.634,326.842 299.904 C 327.320 299.175,328.299 298.133,329.017 297.589 C 329.734 297.045,330.239 296.465,330.137 296.300 C 330.036 296.135,330.244 296.000,330.600 296.000 C 330.956 296.000,331.143 295.831,331.015 295.624 C 330.713 295.136,333.112 292.400,333.841 292.400 C 334.149 292.400,334.400 292.124,334.400 291.787 C 334.400 291.449,335.035 290.504,335.812 289.687 C 337.972 287.412,338.253 287.070,338.759 286.100 C 339.017 285.605,339.486 285.200,339.802 285.200 C 340.117 285.200,340.282 284.958,340.169 284.662 C 340.055 284.367,340.493 283.557,341.142 282.862 C 341.790 282.168,342.204 281.594,342.060 281.587 C 341.917 281.579,342.225 281.219,342.744 280.787 C 343.264 280.354,343.534 279.995,343.344 279.988 C 343.155 279.981,343.319 279.790,343.708 279.563 C 344.098 279.336,344.312 278.981,344.183 278.773 C 344.054 278.565,344.231 278.286,344.575 278.154 C 344.919 278.022,345.200 277.773,345.200 277.600 C 345.200 277.094,349.606 270.213,350.024 270.066 C 350.234 269.992,350.303 269.767,350.179 269.566 C 350.055 269.365,350.154 269.200,350.400 269.200 C 350.646 269.200,350.736 269.020,350.600 268.800 C 350.464 268.580,350.554 268.400,350.800 268.400 C 351.046 268.400,351.136 268.220,351.000 268.000 C 350.864 267.780,350.954 267.600,351.200 267.600 C 351.446 267.600,351.548 267.439,351.426 267.242 C 351.304 267.045,351.459 266.786,351.771 266.667 C 352.082 266.547,352.301 266.213,352.257 265.925 C 352.126 265.062,351.569 264.372,351.191 264.606 C 350.996 264.726,349.121 264.389,347.023 263.856 L 343.210 262.888 340.359 267.586 C 330.094 284.503,317.162 297.931,300.365 309.114 C 292.882 314.096,288.103 316.743,281.800 319.398 C 279.380 320.417,275.960 321.856,274.200 322.594 C 248.429 333.409,205.748 333.268,181.600 322.287 C 180.390 321.737,178.140 320.794,176.600 320.191 C 172.868 318.730,164.433 314.433,161.200 312.346 C 159.770 311.423,156.803 309.504,154.606 308.082 C 143.462 300.865,129.812 287.626,121.819 276.282 C 119.345 272.770,119.184 272.791,126.835 275.643 C 134.757 278.595,137.014 279.352,145.784 281.996 C 149.515 283.121,152.755 284.195,152.984 284.382 C 153.835 285.080,155.817 284.934,157.200 284.072 C 157.970 283.591,158.813 283.279,159.074 283.377 C 159.335 283.475,159.605 283.407,159.674 283.226 C 159.743 283.045,161.600 282.227,163.800 281.408 C 168.888 279.514,171.615 278.368,176.379 276.122 C 178.480 275.131,181.730 273.686,183.600 272.910 C 194.801 268.264,221.438 253.639,232.800 245.897 C 248.813 234.985,251.475 232.635,248.284 232.230 C 247.798 232.168,246.950 231.919,246.400 231.676 C 245.850 231.434,242.700 230.378,239.400 229.329 C 236.100 228.280,233.343 227.293,233.274 227.134 C 233.205 226.975,232.890 226.944,232.574 227.065 C 232.258 227.186,232.000 227.074,232.000 226.816 C 232.000 226.528,231.690 226.444,231.200 226.600 C 230.760 226.740,230.400 226.700,230.400 226.512 C 230.400 226.324,230.036 226.143,229.591 226.109 C 228.392 226.019,207.021 218.730,206.874 218.361 C 206.805 218.187,206.490 218.144,206.174 218.265 C 205.858 218.386,205.600 218.276,205.600 218.019 C 205.600 217.763,205.413 217.668,205.185 217.810 C 204.956 217.951,197.981 215.816,189.685 213.066 C 181.388 210.315,173.070 207.598,171.200 207.027 C 163.008 204.526,147.634 199.433,147.794 199.273 C 148.579 198.488,171.746 205.143,177.400 207.778 C 178.060 208.086,180.400 208.876,182.600 209.535 C 184.800 210.193,190.650 212.102,195.600 213.776 C 200.550 215.451,210.450 218.728,217.600 221.058 C 224.750 223.389,230.690 225.438,230.801 225.611 C 230.912 225.785,232.172 226.223,233.601 226.584 C 235.030 226.945,236.740 227.486,237.400 227.785 C 238.060 228.084,239.950 228.733,241.600 229.227 C 243.250 229.721,244.654 230.258,244.719 230.420 C 244.785 230.582,245.163 230.630,245.560 230.526 C 245.956 230.423,246.534 230.591,246.844 230.901 C 247.154 231.211,247.631 231.390,247.904 231.299 C 248.177 231.208,248.400 231.348,248.400 231.609 C 248.400 231.871,248.658 231.986,248.974 231.865 C 249.290 231.744,249.608 231.824,249.681 232.044 C 249.879 232.636,251.255 231.997,253.225 230.400 C 283.241 206.059,300.013 185.814,318.047 152.156 C 320.362 147.835,320.361 147.845,318.700 148.147 C 317.985 148.277,315.780 148.579,313.800 148.817 C 311.820 149.056,308.940 149.416,307.400 149.617 C 305.860 149.819,302.890 150.161,300.800 150.379 C 298.710 150.596,295.200 150.963,293.000 151.195 C 283.705 152.175,270.825 153.206,262.800 153.613 C 258.070 153.853,253.776 154.223,253.257 154.436 C 250.573 155.535,200.985 155.228,186.600 154.023 C 183.960 153.801,179.190 153.418,176.000 153.172 C 172.810 152.925,168.040 152.468,165.400 152.157 C 162.760 151.845,159.070 151.415,157.200 151.200 C 150.321 150.411,136.609 148.140,131.677 146.973 C 130.204 146.625,128.550 146.274,128.000 146.194 C 124.346 145.658,112.948 142.487,111.643 141.642 C 110.910 141.168,113.654 135.995,118.878 128.000 C 157.673 68.624,237.205 51.154,297.335 88.800 C 308.492 95.785,321.569 106.929,327.813 114.771 C 328.789 115.997,330.949 118.710,332.613 120.800 C 356.711 151.064,365.544 196.926,354.632 235.128 C 353.963 237.471,353.817 238.506,354.141 238.625 C 354.393 238.718,356.281 239.214,358.336 239.728 L 362.072 240.663 362.426 239.732 C 362.621 239.219,362.977 238.800,363.217 238.800 C 363.472 238.800,363.548 238.467,363.400 238.000 C 363.248 237.521,363.328 237.200,363.600 237.200 C 363.872 237.200,363.952 236.879,363.800 236.400 C 363.648 235.921,363.728 235.600,364.000 235.600 C 364.265 235.600,364.353 235.281,364.211 234.834 C 364.077 234.412,364.167 233.944,364.411 233.793 C 364.655 233.642,364.760 233.273,364.645 232.972 C 364.529 232.672,364.614 232.315,364.834 232.179 C 365.053 232.044,365.123 231.588,364.989 231.166 C 364.852 230.732,364.934 230.400,365.181 230.400 C 365.444 230.400,365.517 230.007,365.364 229.400 C 365.203 228.758,365.282 228.400,365.584 228.400 C 365.865 228.400,365.956 228.092,365.811 227.634 C 365.677 227.212,365.752 226.753,365.978 226.614 C 366.203 226.474,366.389 225.964,366.390 225.480 C 366.391 224.996,366.489 224.060,366.607 223.400 C 369.145 209.305,369.127 188.318,366.567 176.800 C 366.445 176.250,366.342 175.350,366.337 174.800 C 366.333 174.250,366.162 173.598,365.958 173.351 C 365.753 173.104,365.699 172.609,365.836 172.251 C 365.982 171.870,365.884 171.600,365.599 171.600 C 365.284 171.600,365.199 171.258,365.358 170.625 C 365.493 170.088,365.430 169.542,365.219 169.412 C 365.008 169.281,364.929 168.928,365.045 168.628 C 365.160 168.327,365.059 167.960,364.821 167.813 C 364.582 167.665,364.495 167.369,364.628 167.155 C 364.760 166.940,364.653 166.505,364.390 166.188 C 364.126 165.870,364.015 165.338,364.143 165.005 C 364.270 164.672,364.188 164.400,363.960 164.400 C 363.728 164.400,363.658 164.049,363.800 163.600 C 363.952 163.121,363.872 162.800,363.600 162.800 C 363.328 162.800,363.248 162.479,363.400 162.000 C 363.556 161.510,363.472 161.200,363.184 161.200 C 362.926 161.200,362.818 160.930,362.945 160.600 C 363.071 160.270,362.981 160.000,362.745 160.000 C 362.508 160.000,362.418 159.730,362.545 159.400 C 362.671 159.070,362.580 158.800,362.341 158.800 C 362.102 158.800,361.999 158.449,362.111 158.019 C 362.223 157.590,362.138 157.179,361.921 157.107 C 361.704 157.035,361.498 156.486,361.463 155.888 C 361.428 155.290,361.246 154.800,361.057 154.800 C 360.869 154.800,360.818 154.530,360.945 154.200 C 361.071 153.870,360.981 153.600,360.745 153.600 C 360.508 153.600,360.418 153.330,360.545 153.000 C 360.671 152.670,360.581 152.400,360.345 152.400 C 360.108 152.400,360.014 152.142,360.135 151.826 C 360.256 151.510,360.214 151.195,360.043 151.126 C 359.871 151.057,358.876 148.795,357.831 146.100 C 356.787 143.405,355.787 141.200,355.610 141.200 C 355.287 141.200,354.610 139.267,354.734 138.700 C 354.770 138.535,354.609 138.400,354.376 138.400 C 354.143 138.400,354.064 138.220,354.200 138.000 C 354.336 137.780,354.278 137.600,354.072 137.600 C 353.691 137.600,352.654 135.461,352.793 134.962 C 352.834 134.812,352.687 134.578,352.466 134.441 C 352.245 134.304,352.005 133.928,351.932 133.606 C 351.859 133.283,351.573 132.775,351.296 132.477 C 351.019 132.179,350.895 131.770,351.020 131.568 C 351.145 131.365,351.061 131.200,350.834 131.200 C 350.607 131.200,350.118 130.616,349.749 129.901 C 349.380 129.187,348.148 127.162,347.012 125.401 C 345.876 123.641,344.901 122.020,344.845 121.800 C 344.789 121.580,344.482 121.254,344.163 121.075 C 343.844 120.897,343.688 120.582,343.815 120.375 C 343.943 120.169,343.881 120.000,343.679 120.000 C 343.476 120.000,341.890 118.065,340.155 115.700 C 338.420 113.335,336.730 111.109,336.400 110.752 C 336.070 110.396,334.844 109.046,333.676 107.752 C 332.508 106.459,329.922 103.750,327.929 101.733 C 325.937 99.715,324.096 97.645,323.840 97.133 C 323.584 96.620,323.056 96.198,322.667 96.197 C 322.279 96.195,321.295 95.523,320.480 94.704 C 318.565 92.778,316.811 91.200,316.585 91.200 C 316.052 91.200,312.003 87.716,312.002 87.257 C 312.001 86.925,311.753 86.809,311.363 86.959 C 310.935 87.123,310.655 86.933,310.510 86.379 C 310.379 85.877,310.075 85.639,309.732 85.771 C 309.423 85.889,309.067 85.720,308.942 85.393 C 308.817 85.067,308.464 84.800,308.157 84.800 C 307.851 84.800,307.600 84.620,307.600 84.400 C 307.600 84.180,307.430 84.000,307.223 84.000 C 306.827 84.000,299.859 79.663,298.767 78.737 C 298.418 78.442,297.880 78.141,297.570 78.068 C 297.261 77.995,296.896 77.755,296.759 77.534 C 296.622 77.313,296.435 77.192,296.342 77.266 C 296.049 77.500,292.800 75.895,292.800 75.516 C 292.800 75.316,292.620 75.264,292.400 75.400 C 292.180 75.536,292.000 75.446,292.000 75.200 C 292.000 74.954,291.820 74.864,291.600 75.000 C 291.380 75.136,291.200 75.046,291.200 74.800 C 291.200 74.554,291.020 74.464,290.800 74.600 C 290.580 74.736,290.400 74.646,290.400 74.400 C 290.400 74.154,290.220 74.064,290.000 74.200 C 289.780 74.336,289.600 74.246,289.600 74.000 C 289.600 73.754,289.420 73.664,289.200 73.800 C 288.980 73.936,288.800 73.846,288.800 73.600 C 288.800 73.354,288.620 73.264,288.400 73.400 C 288.180 73.536,288.000 73.469,288.000 73.251 C 288.000 73.032,287.595 72.737,287.100 72.593 C 285.358 72.088,279.398 69.476,279.274 69.162 C 279.205 68.988,278.890 68.944,278.574 69.065 C 278.258 69.186,278.000 69.076,278.000 68.819 C 278.000 68.563,277.820 68.464,277.600 68.600 C 277.380 68.736,277.200 68.662,277.200 68.436 C 277.200 68.210,276.930 68.129,276.600 68.255 C 276.270 68.382,276.000 68.292,276.000 68.055 C 276.000 67.819,275.730 67.729,275.400 67.855 C 275.070 67.982,274.800 67.892,274.800 67.655 C 274.800 67.419,274.530 67.329,274.200 67.455 C 273.870 67.582,273.600 67.492,273.600 67.255 C 273.600 67.019,273.330 66.929,273.000 67.055 C 272.670 67.182,272.400 67.074,272.400 66.816 C 272.400 66.528,272.090 66.444,271.600 66.600 C 271.123 66.751,270.800 66.672,270.800 66.403 C 270.800 66.156,270.620 66.064,270.400 66.200 C 270.180 66.336,270.000 66.244,270.000 65.997 C 270.000 65.728,269.677 65.649,269.200 65.800 C 268.751 65.942,268.400 65.872,268.400 65.640 C 268.400 65.412,268.130 65.329,267.800 65.455 C 267.470 65.582,267.200 65.474,267.200 65.216 C 267.200 64.928,266.890 64.844,266.400 65.000 C 265.923 65.151,265.600 65.072,265.600 64.803 C 265.600 64.556,265.412 64.469,265.182 64.611 C 264.953 64.753,264.511 64.658,264.200 64.400 C 263.889 64.142,263.460 64.040,263.245 64.172 C 263.031 64.305,262.735 64.218,262.587 63.979 C 262.440 63.741,262.073 63.640,261.772 63.755 C 261.472 63.871,261.112 63.781,260.972 63.555 C 260.833 63.330,260.444 63.251,260.109 63.380 C 259.773 63.508,259.273 63.427,258.997 63.198 C 258.722 62.969,257.800 62.695,256.948 62.589 C 256.097 62.482,254.140 62.139,252.600 61.826 C 244.356 60.150,227.495 59.276,217.800 60.023 M135.200 94.839 C 135.200 95.253,131.561 98.750,130.953 98.920 C 130.441 99.064,126.027 103.281,126.113 103.544 C 126.269 104.018,123.911 106.800,123.353 106.800 C 123.049 106.800,122.796 107.025,122.791 107.300 C 122.786 107.575,121.758 108.880,120.506 110.200 C 119.253 111.520,118.221 112.690,118.212 112.800 C 118.152 113.520,116.224 116.000,115.725 116.000 C 115.340 116.000,115.202 116.227,115.350 116.615 C 115.485 116.965,115.331 117.328,114.993 117.458 C 114.667 117.583,114.400 117.942,114.400 118.255 C 114.400 118.569,114.130 118.929,113.800 119.055 C 113.470 119.182,113.200 119.536,113.200 119.843 C 113.200 120.149,113.020 120.400,112.800 120.400 C 112.580 120.400,112.400 120.670,112.400 121.000 C 112.400 121.330,112.220 121.600,112.000 121.600 C 111.780 121.600,111.600 121.778,111.600 121.996 C 111.600 122.522,107.990 128.162,107.544 128.334 C 107.352 128.408,107.298 128.634,107.423 128.837 C 107.548 129.040,107.370 129.313,107.028 129.445 C 106.685 129.576,106.504 129.845,106.626 130.042 C 106.748 130.239,106.646 130.400,106.400 130.400 C 106.154 130.400,106.064 130.580,106.200 130.800 C 106.336 131.020,106.246 131.200,106.000 131.200 C 105.754 131.200,105.645 131.350,105.759 131.533 C 105.872 131.716,105.540 132.491,105.021 133.255 C 104.503 134.018,103.681 135.488,103.195 136.521 C 102.287 138.452,101.654 138.797,100.725 137.868 C 100.432 137.575,99.990 137.403,99.743 137.486 C 99.495 137.568,99.023 137.366,98.694 137.037 C 98.365 136.708,97.984 136.550,97.848 136.686 C 97.711 136.822,97.600 136.753,97.600 136.533 C 97.600 136.313,97.375 136.133,97.100 136.132 C 96.309 136.131,91.600 133.871,91.600 133.493 C 91.600 133.306,91.420 133.264,91.200 133.400 C 90.980 133.536,90.800 133.446,90.800 133.200 C 90.800 132.954,90.620 132.864,90.400 133.000 C 90.180 133.136,90.000 133.098,90.000 132.915 C 90.000 132.732,89.325 132.226,88.500 131.791 C 85.726 130.328,83.600 128.748,83.600 128.148 C 83.600 127.820,83.404 127.674,83.164 127.822 C 82.677 128.123,79.600 125.308,79.600 124.562 C 79.600 124.300,79.375 123.998,79.100 123.891 C 78.825 123.784,78.245 122.775,77.812 121.648 C 77.379 120.522,76.922 119.600,76.796 119.600 C 76.671 119.600,76.682 118.385,76.819 116.900 C 77.053 114.376,78.046 111.600,78.715 111.600 C 78.878 111.600,79.188 111.195,79.405 110.700 C 79.622 110.205,80.205 109.622,80.700 109.405 C 81.195 109.188,81.600 108.879,81.600 108.718 C 81.600 107.975,88.598 103.828,89.212 104.207 C 89.425 104.339,89.600 104.246,89.600 104.000 C 89.600 103.754,89.780 103.664,90.000 103.800 C 90.220 103.936,90.400 103.862,90.400 103.636 C 90.400 103.410,90.670 103.329,91.000 103.455 C 91.330 103.582,91.600 103.504,91.600 103.282 C 91.600 102.792,93.950 101.922,94.446 102.228 C 94.641 102.349,94.800 102.244,94.800 101.997 C 94.800 101.728,95.123 101.649,95.600 101.800 C 96.049 101.942,96.400 101.872,96.400 101.640 C 96.400 101.412,96.670 101.329,97.000 101.455 C 97.330 101.582,97.600 101.467,97.600 101.200 C 97.600 100.933,97.870 100.818,98.200 100.945 C 98.530 101.071,98.800 100.988,98.800 100.760 C 98.800 100.528,99.151 100.458,99.600 100.600 C 100.093 100.756,100.400 100.672,100.400 100.380 C 100.400 100.108,100.731 99.993,101.181 100.111 C 101.610 100.223,102.015 100.158,102.081 99.966 C 102.221 99.556,110.315 97.860,115.200 97.217 C 117.070 96.971,118.870 96.652,119.200 96.508 C 119.886 96.209,121.912 96.005,124.100 96.013 C 124.958 96.017,125.600 95.824,125.600 95.564 C 125.600 95.252,126.163 95.194,127.400 95.379 C 128.676 95.571,129.200 95.511,129.200 95.173 C 129.200 94.828,129.853 94.771,131.566 94.964 C 133.061 95.134,134.028 95.079,134.190 94.816 C 134.529 94.267,135.200 94.282,135.200 94.839 M86.668 154.951 C 102.063 161.950,117.660 170.310,127.800 176.998 C 135.950 182.373,138.096 183.649,138.638 183.441 C 140.371 182.776,146.475 171.905,148.206 166.400 C 149.437 162.486,149.857 163.475,150.790 172.500 C 152.568 189.676,148.113 194.650,123.400 203.082 C 115.790 205.679,89.172 210.505,88.142 209.476 C 87.989 209.322,98.822 205.307,106.000 202.857 C 114.363 200.002,121.277 196.936,126.604 193.719 C 128.685 192.462,100.980 167.093,85.851 156.402 C 79.503 151.916,79.602 151.739,86.668 154.951 M151.921 193.543 C 155.823 196.361,156.940 196.668,185.000 202.632 C 194.900 204.736,204.170 206.725,205.600 207.052 C 209.740 208.000,218.235 209.771,235.200 213.222 C 243.890 214.991,252.170 216.710,253.600 217.043 C 255.030 217.377,257.786 217.980,259.725 218.383 C 264.234 219.321,264.175 219.090,260.744 222.366 C 254.596 228.237,255.642 228.281,231.400 221.148 C 229.860 220.695,223.200 218.837,216.600 217.020 C 210.000 215.202,200.190 212.440,194.800 210.882 C 189.410 209.324,181.580 207.125,177.400 205.995 C 173.220 204.864,167.640 203.253,165.000 202.413 C 162.360 201.573,157.002 200.032,153.094 198.987 C 144.784 196.767,144.644 196.638,146.868 193.265 C 148.508 190.777,148.056 190.752,151.921 193.543 M302.283 223.789 C 297.691 228.666,290.584 234.627,285.525 237.844 C 276.021 243.888,272.674 245.813,264.600 249.879 C 256.070 254.175,247.986 257.811,242.558 259.793 C 240.555 260.525,237.945 261.565,236.758 262.104 C 232.630 263.981,226.614 266.022,206.600 272.336 C 200.885 274.139,198.207 274.886,187.800 277.582 C 186.260 277.981,182.120 278.976,178.600 279.792 C 175.080 280.609,169.950 281.803,167.200 282.446 C 164.450 283.088,161.774 283.710,161.253 283.827 C 160.732 283.943,160.391 284.124,160.495 284.229 C 160.663 284.396,165.002 283.806,171.000 282.801 C 172.100 282.617,174.800 282.177,177.000 281.823 C 179.200 281.469,182.350 280.890,184.000 280.536 C 185.650 280.181,187.540 279.812,188.200 279.715 C 193.692 278.909,211.645 274.781,218.600 272.724 C 230.558 269.187,238.554 266.663,242.400 265.211 C 244.050 264.589,246.157 263.796,247.083 263.449 C 248.009 263.103,249.539 262.473,250.483 262.048 C 251.427 261.624,254.360 260.338,257.000 259.190 C 265.154 255.644,271.525 252.362,279.630 247.529 L 284.261 244.768 287.530 244.698 C 289.329 244.660,290.800 244.487,290.800 244.314 C 290.800 243.792,292.209 243.959,293.851 244.676 C 294.703 245.047,295.490 245.369,295.600 245.390 C 295.710 245.411,296.205 245.653,296.700 245.928 C 297.195 246.203,297.600 246.328,297.600 246.205 C 297.600 246.082,298.005 246.232,298.500 246.539 C 298.995 246.845,301.695 247.866,304.500 248.807 C 307.305 249.748,309.600 250.666,309.600 250.847 C 309.600 251.027,309.870 251.071,310.200 250.945 C 310.530 250.818,310.800 250.924,310.800 251.181 C 310.800 251.437,310.980 251.536,311.200 251.400 C 311.420 251.264,311.600 251.338,311.600 251.564 C 311.600 251.790,311.870 251.871,312.200 251.745 C 312.530 251.618,312.800 251.724,312.800 251.981 C 312.800 252.237,312.957 252.350,313.148 252.232 C 313.601 251.952,322.159 254.748,322.334 255.234 C 322.408 255.438,322.620 255.511,322.806 255.396 C 322.992 255.282,324.641 255.735,326.472 256.404 C 330.851 258.005,341.827 261.235,347.600 262.622 C 350.130 263.230,352.257 263.869,352.326 264.041 C 352.395 264.214,352.712 264.255,353.031 264.133 C 353.350 264.011,353.876 264.131,354.200 264.400 C 354.524 264.669,355.056 264.787,355.382 264.662 C 355.708 264.537,356.085 264.614,356.221 264.834 C 356.356 265.053,356.797 265.128,357.200 265.000 C 357.603 264.872,358.053 264.962,358.200 265.200 C 358.347 265.438,358.821 265.520,359.253 265.383 C 359.685 265.246,360.292 265.344,360.602 265.601 C 360.911 265.859,361.361 265.948,361.600 265.800 C 361.839 265.652,362.252 265.711,362.518 265.930 C 362.783 266.150,363.450 266.343,364.000 266.360 C 364.550 266.376,365.630 266.487,366.400 266.606 C 367.170 266.725,368.880 266.982,370.200 267.177 C 371.520 267.373,375.480 267.537,379.000 267.542 C 384.597 267.551,386.847 267.367,390.200 266.624 C 390.640 266.527,391.614 266.331,392.366 266.189 C 394.732 265.742,396.414 264.568,397.435 262.650 C 398.391 260.854,398.773 257.600,398.029 257.600 C 397.585 257.600,396.400 258.732,396.400 259.155 C 396.400 259.817,393.108 261.237,390.147 261.852 C 374.545 265.091,315.003 250.978,301.775 240.904 C 295.866 236.405,295.930 231.936,301.947 228.818 C 303.136 228.202,303.274 228.015,302.703 227.791 C 302.045 227.532,302.047 227.456,302.747 226.458 C 303.636 225.190,306.930 219.199,306.736 219.202 C 306.661 219.204,304.657 221.268,302.283 223.789 " stroke="none" fill="#343434" fill-rule="evenodd"></path><path id="path3" d="M192.200 64.239 L 191.000 64.805 192.199 64.570 C 193.451 64.325,193.848 64.112,193.567 63.837 C 193.475 63.747,192.860 63.928,192.200 64.239 M176.971 68.991 C 176.547 69.312,176.380 69.578,176.600 69.581 C 177.194 69.591,178.210 68.877,177.959 68.626 C 177.840 68.506,177.395 68.671,176.971 68.991 M225.717 69.097 C 227.211 69.174,229.551 69.174,230.917 69.096 C 232.282 69.018,231.060 68.955,228.200 68.955 C 225.340 68.956,224.222 69.020,225.717 69.097 M190.200 74.400 C 189.696 74.617,189.622 74.744,190.000 74.744 C 190.330 74.744,190.960 74.589,191.400 74.400 C 191.904 74.183,191.978 74.056,191.600 74.056 C 191.270 74.056,190.640 74.211,190.200 74.400 M267.400 75.200 C 268.500 75.606,269.670 75.938,270.000 75.938 C 270.330 75.938,269.700 75.606,268.600 75.200 C 267.500 74.794,266.330 74.462,266.000 74.462 C 265.670 74.462,266.300 74.794,267.400 75.200 M163.100 75.429 C 161.605 76.240,161.696 76.578,163.200 75.800 C 163.860 75.459,164.400 75.094,164.400 74.990 C 164.400 74.732,164.357 74.747,163.100 75.429 M292.800 75.525 C 292.800 75.699,293.610 76.234,294.600 76.715 C 295.590 77.196,296.400 77.448,296.400 77.275 C 296.400 77.101,295.590 76.566,294.600 76.085 C 293.610 75.604,292.800 75.352,292.800 75.525 M184.475 76.273 C 183.526 76.609,182.821 76.954,182.907 77.041 C 183.090 77.223,186.800 76.005,186.800 75.762 C 186.800 75.512,186.345 75.612,184.475 76.273 M157.796 78.407 C 157.658 78.630,157.390 78.717,157.200 78.600 C 157.010 78.483,156.735 78.582,156.588 78.820 C 156.108 79.596,156.608 79.582,157.816 78.786 C 158.467 78.356,158.786 78.004,158.524 78.003 C 158.262 78.001,157.934 78.183,157.796 78.407 M305.600 83.164 C 306.150 83.614,306.780 83.983,307.000 83.985 C 307.428 83.988,306.705 83.434,305.400 82.760 C 304.869 82.485,304.936 82.621,305.600 83.164 M287.000 83.085 C 287.220 83.299,289.020 84.320,291.000 85.353 C 292.980 86.386,294.261 86.962,293.846 86.632 C 292.925 85.900,286.439 82.540,287.000 83.085 M147.766 84.906 C 144.963 86.566,142.847 88.100,142.649 88.617 C 142.523 88.945,143.495 88.455,144.810 87.528 C 146.124 86.601,147.200 85.698,147.200 85.521 C 147.200 85.345,147.459 85.200,147.776 85.200 C 148.093 85.200,148.464 85.020,148.600 84.800 C 148.918 84.285,148.785 84.302,147.766 84.906 M312.067 87.556 C 312.207 87.931,316.241 91.200,316.563 91.200 C 316.665 91.200,316.265 90.696,315.674 90.081 C 315.084 89.465,314.474 89.020,314.320 89.092 C 314.166 89.164,313.856 88.879,313.631 88.458 C 313.222 87.694,311.815 86.883,312.067 87.556 M110.200 93.200 C 108.308 93.460,108.286 93.475,109.800 93.494 C 110.680 93.504,112.480 93.379,113.800 93.215 L 116.200 92.918 114.200 92.922 C 113.100 92.924,111.300 93.049,110.200 93.200 M132.739 93.301 C 134.633 93.521,136.405 93.539,136.834 93.344 C 137.321 93.123,136.131 92.985,133.495 92.958 L 129.400 92.915 132.739 93.301 M149.729 94.999 C 148.150 96.200,146.730 97.389,146.575 97.641 C 146.317 98.058,151.001 94.583,152.386 93.330 C 153.684 92.155,152.439 92.937,149.729 94.999 M102.600 93.600 L 101.400 93.905 102.800 93.947 C 103.570 93.969,104.470 93.813,104.800 93.600 C 105.539 93.123,104.476 93.123,102.600 93.600 M97.000 94.000 L 95.800 94.305 97.200 94.347 C 97.970 94.369,98.870 94.213,99.200 94.000 C 99.939 93.523,98.876 93.523,97.000 94.000 M92.800 94.400 C 91.853 94.703,91.868 94.722,93.100 94.760 C 93.815 94.782,94.400 94.620,94.400 94.400 C 94.400 93.948,94.212 93.948,92.800 94.400 M320.000 94.139 C 320.000 94.594,322.364 96.382,322.556 96.072 C 322.689 95.855,322.169 95.307,321.399 94.853 C 320.630 94.399,320.000 94.077,320.000 94.139 M89.400 94.800 C 88.691 95.105,88.725 95.147,89.700 95.172 C 90.305 95.187,90.800 95.020,90.800 94.800 C 90.800 94.331,90.493 94.331,89.400 94.800 M134.353 94.700 C 134.327 94.865,134.321 95.118,134.340 95.262 C 134.359 95.406,133.570 96.183,132.587 96.989 C 131.604 97.794,130.800 98.646,130.800 98.882 C 130.800 99.411,134.950 95.596,135.129 94.902 C 135.200 94.626,135.065 94.400,134.829 94.400 C 134.593 94.400,134.379 94.535,134.353 94.700 M86.000 95.200 L 85.000 95.520 86.076 95.560 C 86.668 95.582,87.264 95.420,87.400 95.200 C 87.681 94.745,87.420 94.745,86.000 95.200 M129.200 95.200 C 129.200 95.678,130.288 95.678,131.400 95.200 C 132.042 94.924,131.903 94.851,130.700 94.828 C 129.875 94.813,129.200 94.980,129.200 95.200 M125.600 95.545 C 125.600 95.734,126.050 95.803,126.600 95.698 C 127.150 95.593,127.600 95.438,127.600 95.353 C 127.600 95.269,127.150 95.200,126.600 95.200 C 126.050 95.200,125.600 95.355,125.600 95.545 M324.000 97.455 C 324.000 97.668,324.675 98.463,325.500 99.222 L 327.000 100.600 325.600 99.004 C 324.830 98.127,324.155 97.332,324.100 97.238 C 324.045 97.144,324.000 97.241,324.000 97.455 M316.200 103.200 C 317.059 104.080,317.852 104.800,317.962 104.800 C 318.072 104.800,317.459 104.080,316.600 103.200 C 315.741 102.320,314.948 101.600,314.838 101.600 C 314.728 101.600,315.341 102.320,316.200 103.200 M92.700 102.465 C 91.091 103.052,91.354 103.558,93.000 103.042 C 93.770 102.801,94.400 102.468,94.400 102.302 C 94.400 101.927,94.094 101.956,92.700 102.465 M329.687 103.405 C 330.504 104.260,331.238 104.879,331.317 104.780 C 331.397 104.681,330.728 103.981,329.831 103.225 L 328.200 101.850 329.687 103.405 M135.594 107.500 L 130.600 112.600 135.700 107.606 C 140.437 102.967,140.981 102.400,140.694 102.400 C 140.636 102.400,138.341 104.695,135.594 107.500 M124.448 105.200 C 123.741 106.080,123.321 106.800,123.514 106.800 C 123.708 106.800,124.445 106.080,125.152 105.200 C 125.859 104.320,126.279 103.600,126.086 103.600 C 125.892 103.600,125.155 104.320,124.448 105.200 M87.126 104.814 C 86.315 105.242,85.532 105.786,85.385 106.023 C 85.239 106.261,86.037 105.989,87.160 105.420 C 88.282 104.852,89.200 104.300,89.200 104.193 C 89.200 103.849,88.630 104.020,87.126 104.814 M45.700 105.299 C 44.985 105.528,44.400 105.860,44.400 106.037 C 44.400 106.433,46.716 105.659,47.024 105.161 C 47.147 104.962,47.192 104.818,47.124 104.841 C 47.056 104.863,46.415 105.069,45.700 105.299 M331.600 105.366 C 331.600 105.457,332.331 106.312,333.224 107.266 C 334.279 108.392,334.665 108.649,334.324 108.000 C 333.394 106.225,331.600 104.491,331.600 105.366 M122.000 107.800 C 121.717 108.141,121.576 108.509,121.686 108.619 C 121.796 108.729,122.117 108.541,122.400 108.200 C 122.683 107.859,122.824 107.491,122.714 107.381 C 122.604 107.271,122.283 107.459,122.000 107.800 M335.215 109.000 C 335.217 109.220,335.586 109.850,336.036 110.400 C 336.579 111.064,336.715 111.131,336.440 110.600 C 335.766 109.295,335.212 108.572,335.215 109.000 M79.798 110.002 C 79.398 110.444,79.159 110.892,79.266 111.000 C 79.373 111.107,79.851 110.745,80.328 110.197 C 81.354 109.017,80.855 108.834,79.798 110.002 M325.400 112.400 C 326.259 113.280,327.052 114.000,327.162 114.000 C 327.272 114.000,326.659 113.280,325.800 112.400 C 324.941 111.520,324.148 110.800,324.038 110.800 C 323.928 110.800,324.541 111.520,325.400 112.400 M338.101 112.800 C 340.238 115.865,343.306 120.000,343.443 120.000 C 343.522 120.000,343.212 119.280,342.753 118.400 C 342.295 117.520,341.757 116.800,341.560 116.800 C 341.362 116.800,341.200 116.596,341.200 116.346 C 341.200 116.096,340.795 115.507,340.300 115.038 C 339.805 114.568,338.888 113.557,338.262 112.792 L 337.124 111.400 338.101 112.800 M128.975 114.500 L 127.800 115.800 129.100 114.625 C 130.312 113.530,130.584 113.200,130.275 113.200 C 130.206 113.200,129.621 113.785,128.975 114.500 M27.976 114.629 C 27.689 114.975,26.766 115.609,25.927 116.037 C 25.087 116.466,24.400 116.972,24.400 117.161 C 24.400 117.351,24.003 117.611,23.517 117.737 C 23.032 117.864,22.762 118.095,22.917 118.251 C 23.171 118.505,27.074 116.069,28.172 114.971 C 28.415 114.728,28.881 114.424,29.207 114.296 C 29.698 114.103,29.688 114.058,29.149 114.032 C 28.791 114.014,28.263 114.283,27.976 114.629 M116.237 115.000 C 115.876 115.550,115.745 116.000,115.945 116.000 C 116.145 116.000,116.603 115.550,116.963 115.000 C 117.324 114.450,117.455 114.000,117.255 114.000 C 117.055 114.000,116.597 114.450,116.237 115.000 M114.234 117.649 C 113.843 118.313,113.625 118.959,113.752 119.085 C 113.878 119.211,114.109 118.974,114.266 118.557 C 114.422 118.141,114.814 117.602,115.136 117.361 C 115.475 117.107,115.558 116.821,115.334 116.683 C 115.121 116.551,114.626 116.986,114.234 117.649 M125.341 118.900 C 124.010 120.402,121.920 123.200,122.130 123.200 C 122.238 123.200,123.246 122.030,124.370 120.600 C 126.388 118.032,126.891 117.153,125.341 118.900 M18.202 121.998 C 17.803 122.439,17.662 122.800,17.889 122.800 C 18.392 122.800,19.390 121.657,19.121 121.388 C 19.015 121.282,18.602 121.556,18.202 121.998 M345.917 123.755 C 346.733 124.941,347.458 125.858,347.528 125.794 C 347.725 125.614,345.040 121.615,344.717 121.607 C 344.562 121.603,345.102 122.570,345.917 123.755 M110.653 123.300 L 109.933 124.600 110.758 123.600 C 111.489 122.713,111.814 122.000,111.486 122.000 C 111.424 122.000,111.049 122.585,110.653 123.300 M79.600 124.719 C 79.600 125.278,82.774 128.160,83.067 127.866 C 83.222 127.712,82.580 126.868,81.641 125.992 C 79.878 124.349,79.600 124.175,79.600 124.719 M13.925 126.298 C 12.768 127.645,12.700 128.192,13.825 127.112 C 14.448 126.514,14.861 125.928,14.743 125.810 C 14.625 125.692,14.257 125.911,13.925 126.298 M108.892 125.868 C 108.302 126.105,107.027 128.402,107.490 128.395 C 107.660 128.392,108.207 127.762,108.704 126.995 C 109.201 126.228,109.561 125.614,109.504 125.632 C 109.447 125.649,109.171 125.755,108.892 125.868 M83.678 128.435 C 83.769 128.708,84.243 129.196,84.730 129.520 C 85.470 130.011,85.581 130.015,85.401 129.546 C 85.115 128.802,83.441 127.722,83.678 128.435 M104.666 133.100 C 104.085 134.375,104.079 134.480,104.621 133.800 C 105.590 132.585,106.067 131.600,105.688 131.600 C 105.501 131.600,105.041 132.275,104.666 133.100 M7.904 134.100 C 6.241 136.644,4.311 140.800,4.792 140.800 C 5.146 140.800,5.675 139.587,5.495 139.190 C 5.443 139.075,5.631 138.715,5.913 138.390 C 6.843 137.322,9.149 133.200,8.817 133.200 C 8.638 133.200,8.227 133.605,7.904 134.100 M93.000 134.441 C 95.325 135.618,97.200 136.388,97.200 136.167 C 97.200 135.929,92.198 133.594,91.735 133.616 C 91.551 133.625,92.120 133.996,93.000 134.441 M353.081 136.200 C 353.448 136.970,353.872 137.600,354.023 137.600 C 354.391 137.600,353.082 134.830,352.706 134.813 C 352.545 134.806,352.713 135.430,353.081 136.200 M342.600 136.400 C 342.941 137.060,343.311 137.600,343.421 137.600 C 343.531 137.600,343.341 137.060,343.000 136.400 C 342.659 135.740,342.289 135.200,342.179 135.200 C 342.069 135.200,342.259 135.740,342.600 136.400 M99.200 137.278 C 99.200 137.502,99.458 137.586,99.774 137.465 C 100.090 137.344,100.436 137.419,100.544 137.632 C 100.652 137.846,100.699 137.806,100.648 137.545 C 100.535 136.959,99.200 136.713,99.200 137.278 M354.922 140.000 C 355.172 140.660,355.521 141.200,355.698 141.200 C 355.875 141.200,355.741 140.660,355.400 140.000 C 355.059 139.340,354.710 138.800,354.624 138.800 C 354.539 138.800,354.673 139.340,354.922 140.000 M345.482 141.789 C 346.073 142.993,346.623 143.911,346.705 143.829 C 346.884 143.649,344.867 139.600,344.598 139.600 C 344.494 139.600,344.892 140.585,345.482 141.789 M115.800 143.200 C 116.240 143.389,116.870 143.544,117.200 143.544 C 117.578 143.544,117.504 143.417,117.000 143.200 C 116.560 143.011,115.930 142.856,115.600 142.856 C 115.222 142.856,115.296 142.983,115.800 143.200 M119.400 144.211 C 120.280 144.501,121.360 144.736,121.800 144.733 C 122.240 144.731,121.700 144.478,120.600 144.172 C 118.097 143.476,117.252 143.503,119.400 144.211 M81.200 152.973 C 81.200 153.068,81.785 153.556,82.500 154.057 C 83.362 154.662,83.615 154.738,83.251 154.284 C 82.949 153.908,82.859 153.597,83.051 153.594 C 83.243 153.591,83.130 153.413,82.800 153.200 C 82.186 152.803,81.200 152.663,81.200 152.973 M315.363 157.100 C 314.551 158.585,313.620 160.250,313.294 160.800 C 312.778 161.670,312.777 161.722,313.290 161.200 C 313.957 160.520,317.323 154.400,317.030 154.400 C 316.925 154.400,316.175 155.615,315.363 157.100 M352.856 159.600 C 352.856 159.930,353.011 160.560,353.200 161.000 C 353.417 161.504,353.544 161.578,353.544 161.200 C 353.544 160.870,353.389 160.240,353.200 159.800 C 352.983 159.296,352.856 159.222,352.856 159.600 M0.109 161.600 C 0.109 162.590,0.187 162.995,0.282 162.500 C 0.378 162.005,0.378 161.195,0.282 160.700 C 0.187 160.205,0.109 160.610,0.109 161.600 M96.582 164.488 C 97.472 165.306,98.349 165.981,98.531 165.988 C 98.713 165.995,98.263 165.516,97.531 164.924 C 95.287 163.111,94.883 162.925,96.582 164.488 M354.250 164.400 C 354.390 165.170,354.661 166.160,354.854 166.600 C 355.094 167.149,355.124 166.961,354.950 166.000 C 354.810 165.230,354.539 164.240,354.346 163.800 C 354.106 163.251,354.076 163.439,354.250 164.400 M104.433 163.752 C 104.841 164.124,108.800 165.993,108.800 165.813 C 108.800 165.588,104.980 163.600,104.547 163.600 C 104.393 163.600,104.342 163.668,104.433 163.752 M355.268 168.200 C 355.262 168.640,355.411 169.360,355.600 169.800 C 356.038 170.819,356.038 169.768,355.600 168.400 C 355.343 167.596,355.277 167.557,355.268 168.200 M108.200 174.400 C 109.506 175.720,110.665 176.800,110.775 176.800 C 110.885 176.800,109.906 175.720,108.600 174.400 C 107.294 173.080,106.135 172.000,106.025 172.000 C 105.915 172.000,106.894 173.080,108.200 174.400 M145.078 173.805 C 144.712 174.572,144.495 175.200,144.596 175.200 C 144.870 175.200,146.084 172.751,145.901 172.568 C 145.814 172.481,145.444 173.038,145.078 173.805 M150.909 176.400 C 150.909 177.390,150.987 177.795,151.082 177.300 C 151.178 176.805,151.178 175.995,151.082 175.500 C 150.987 175.005,150.909 175.410,150.909 176.400 M119.588 185.292 C 127.074 192.878,127.345 193.208,126.588 193.814 C 125.825 194.424,125.829 194.430,126.700 194.008 C 128.029 193.364,128.218 193.602,119.700 185.196 L 111.800 177.400 119.588 185.292 M139.078 183.013 C 138.460 183.556,138.114 184.000,138.308 184.000 C 138.502 184.000,139.083 183.550,139.600 183.000 C 140.795 181.728,140.531 181.734,139.078 183.013 M4.410 183.800 C 4.624 184.350,4.985 185.275,5.211 185.855 C 5.437 186.436,5.710 186.824,5.816 186.717 C 5.923 186.611,5.639 185.686,5.186 184.662 C 4.328 182.721,3.730 182.058,4.410 183.800 M294.353 189.300 C 292.754 191.335,291.716 192.781,292.048 192.513 C 292.768 191.931,297.712 185.600,297.446 185.600 C 297.345 185.600,295.953 187.265,294.353 189.300 M6.800 189.803 C 6.800 190.356,9.006 193.993,9.443 194.161 C 9.977 194.366,8.460 191.499,7.911 191.266 C 7.737 191.192,7.697 190.967,7.821 190.766 C 7.945 190.565,7.846 190.400,7.600 190.400 C 7.354 190.400,7.264 190.220,7.400 190.000 C 7.536 189.780,7.457 189.600,7.224 189.600 C 6.991 189.600,6.800 189.691,6.800 189.803 M150.767 192.945 C 151.300 193.601,152.800 194.593,152.800 194.289 C 152.800 194.213,152.215 193.722,151.500 193.199 C 150.696 192.610,150.416 192.513,150.767 192.945 M143.800 193.850 C 143.081 194.462,142.934 194.705,143.433 194.457 C 144.166 194.093,145.541 192.776,145.149 192.814 C 145.067 192.822,144.460 193.288,143.800 193.850 M368.501 195.800 C 368.505 196.680,368.587 196.993,368.683 196.495 C 368.779 195.998,368.775 195.278,368.675 194.895 C 368.575 194.513,368.496 194.920,368.501 195.800 M122.700 195.826 C 121.655 196.370,120.800 196.905,120.800 197.014 C 120.800 197.124,121.700 196.757,122.800 196.200 C 123.900 195.643,124.800 195.100,124.800 194.993 C 124.800 194.729,124.836 194.714,122.700 195.826 M154.525 195.700 C 154.945 196.085,155.584 196.389,155.944 196.375 C 156.359 196.359,156.240 196.206,155.622 195.959 C 155.083 195.744,154.445 195.440,154.203 195.284 C 153.960 195.128,154.106 195.315,154.525 195.700 M139.900 196.229 C 138.405 197.040,138.496 197.378,140.000 196.600 C 140.660 196.259,141.200 195.894,141.200 195.790 C 141.200 195.532,141.157 195.547,139.900 196.229 M286.575 198.900 L 285.400 200.200 286.700 199.025 C 287.415 198.379,288.000 197.794,288.000 197.725 C 288.000 197.416,287.670 197.688,286.575 198.900 M13.567 200.662 C 14.025 201.356,14.400 202.076,14.400 202.262 C 14.401 202.448,14.851 203.123,15.400 203.762 C 15.950 204.401,16.400 205.070,16.400 205.248 C 16.400 205.426,16.761 205.765,17.203 206.001 C 17.834 206.339,17.731 206.042,16.726 204.616 C 16.022 203.617,15.301 202.800,15.123 202.800 C 14.945 202.800,14.799 202.575,14.798 202.300 C 14.797 202.025,14.332 201.260,13.765 200.600 L 12.734 199.400 13.567 200.662 M283.200 202.600 C 282.228 203.590,281.523 204.400,281.633 204.400 C 281.743 204.400,282.628 203.590,283.600 202.600 C 284.572 201.610,285.277 200.800,285.167 200.800 C 285.057 200.800,284.172 201.610,283.200 202.600 M168.014 203.378 C 168.792 203.664,170.052 204.007,170.814 204.139 C 171.576 204.272,171.120 204.027,169.800 203.595 C 167.133 202.724,165.798 202.561,168.014 203.378 M368.509 204.400 C 368.509 205.390,368.587 205.795,368.682 205.300 C 368.778 204.805,368.778 203.995,368.682 203.500 C 368.587 203.005,368.509 203.410,368.509 204.400 M119.200 204.026 C 117.780 204.509,117.492 204.690,118.386 204.537 C 120.010 204.258,122.876 203.251,122.000 203.267 C 121.670 203.273,120.410 203.615,119.200 204.026 M160.200 203.600 C 160.640 203.789,161.270 203.944,161.600 203.944 C 161.978 203.944,161.904 203.817,161.400 203.600 C 160.960 203.411,160.330 203.256,160.000 203.256 C 159.622 203.256,159.696 203.383,160.200 203.600 M188.200 203.555 C 188.640 203.744,189.810 204.007,190.800 204.141 C 191.984 204.300,192.258 204.271,191.600 204.054 C 190.107 203.562,187.230 203.140,188.200 203.555 M99.800 204.986 C 98.255 205.693,98.974 205.703,100.800 205.000 C 101.570 204.703,101.930 204.455,101.600 204.448 C 101.270 204.442,100.460 204.683,99.800 204.986 M167.600 204.536 C 167.600 204.773,172.400 206.411,172.978 206.371 C 173.210 206.355,172.500 206.021,171.400 205.629 C 168.363 204.548,167.600 204.328,167.600 204.536 M174.600 205.200 C 175.040 205.389,175.670 205.544,176.000 205.544 C 176.378 205.544,176.304 205.417,175.800 205.200 C 175.360 205.011,174.730 204.856,174.400 204.856 C 174.022 204.856,174.096 204.983,174.600 205.200 M21.944 211.878 C 22.454 212.850,23.200 213.449,23.200 212.886 C 23.200 212.687,22.814 212.181,22.342 211.762 C 21.490 211.005,21.487 211.006,21.944 211.878 M271.191 215.100 L 267.800 218.600 271.300 215.209 C 274.551 212.059,274.982 211.600,274.691 211.600 C 274.631 211.600,273.056 213.175,271.191 215.100 M203.633 213.366 C 203.725 213.457,205.510 214.006,207.600 214.586 C 209.690 215.165,211.760 215.743,212.200 215.869 C 212.640 215.996,212.886 215.978,212.747 215.830 C 212.607 215.681,210.627 215.034,208.347 214.392 C 204.284 213.247,203.299 213.033,203.633 213.366 M26.221 216.609 C 27.703 218.264,29.013 219.520,29.133 219.400 C 29.401 219.133,24.221 213.600,23.703 213.600 C 23.607 213.600,24.740 214.954,26.221 216.609 M199.172 215.225 C 201.686 216.086,203.812 216.721,203.897 216.636 C 204.078 216.455,195.584 213.586,194.999 213.631 C 194.780 213.647,196.657 214.365,199.172 215.225 M236.433 213.749 C 236.731 214.014,245.667 215.666,245.844 215.489 C 245.939 215.394,244.041 214.931,241.628 214.459 C 237.333 213.618,236.098 213.450,236.433 213.749 M203.600 217.165 L 202.600 217.450 203.747 217.744 C 204.378 217.906,204.993 217.940,205.114 217.819 C 205.235 217.699,205.113 217.600,204.843 217.600 C 204.573 217.600,204.464 217.420,204.600 217.200 C 204.736 216.980,204.792 216.818,204.724 216.840 C 204.656 216.862,204.150 217.008,203.600 217.165 M306.000 219.140 C 306.000 219.327,303.807 221.802,301.126 224.640 C 298.445 227.478,297.379 228.720,298.757 227.400 C 302.360 223.949,306.961 218.800,306.442 218.800 C 306.199 218.800,306.000 218.953,306.000 219.140 M30.230 220.430 C 30.555 221.148,34.014 224.229,33.959 223.752 C 33.937 223.558,33.030 222.604,31.945 221.630 C 30.860 220.657,30.088 220.117,30.230 220.430 M261.204 223.828 C 257.386 227.053,256.901 227.739,260.520 224.796 C 263.257 222.571,264.341 221.558,263.924 221.618 C 263.856 221.627,262.632 222.622,261.204 223.828 M259.762 222.859 C 259.343 223.331,258.298 224.231,257.440 224.859 C 256.582 225.486,256.074 226.000,256.312 226.000 C 256.761 226.000,261.181 222.042,260.762 222.015 C 260.631 222.007,260.181 222.386,259.762 222.859 M238.200 223.200 C 238.640 223.389,239.270 223.544,239.600 223.544 C 239.978 223.544,239.904 223.417,239.400 223.200 C 238.960 223.011,238.330 222.856,238.000 222.856 C 237.622 222.856,237.696 222.983,238.200 223.200 M222.600 224.000 C 223.700 224.406,224.870 224.738,225.200 224.738 C 225.530 224.738,224.900 224.406,223.800 224.000 C 222.700 223.594,221.530 223.262,221.200 223.262 C 220.870 223.262,221.500 223.594,222.600 224.000 M224.636 223.568 C 225.109 224.004,228.004 224.930,228.219 224.714 C 228.311 224.623,227.460 224.252,226.329 223.890 C 225.198 223.529,224.437 223.384,224.636 223.568 M35.400 225.412 C 36.060 225.953,36.749 226.397,36.931 226.398 C 37.113 226.399,36.727 225.950,36.073 225.400 C 35.419 224.850,34.730 224.406,34.542 224.414 C 34.354 224.422,34.740 224.871,35.400 225.412 M251.107 226.690 C 251.826 226.779,252.906 226.777,253.507 226.686 C 254.108 226.595,253.520 226.522,252.200 226.524 C 250.880 226.526,250.388 226.601,251.107 226.690 M355.400 230.800 C 355.248 231.491,355.207 232.141,355.309 232.242 C 355.411 232.344,355.609 231.853,355.750 231.150 C 355.891 230.447,355.931 229.798,355.841 229.708 C 355.750 229.617,355.552 230.109,355.400 230.800 M246.645 231.412 C 247.424 232.601,247.592 232.655,247.323 231.628 C 247.212 231.203,246.868 230.758,246.559 230.640 C 246.119 230.471,246.138 230.639,246.645 231.412 M42.489 231.266 C 42.574 231.522,43.084 232.009,43.622 232.348 L 44.600 232.963 43.630 231.882 C 42.583 230.714,42.244 230.531,42.489 231.266 M252.183 231.228 C 252.037 231.463,251.532 231.812,251.059 232.003 C 250.473 232.239,250.403 232.357,250.838 232.375 C 251.189 232.389,251.802 232.040,252.200 231.600 C 252.598 231.160,252.817 230.800,252.686 230.800 C 252.554 230.800,252.328 230.993,252.183 231.228 M44.803 233.086 C 44.807 233.584,47.588 235.345,47.891 235.042 C 48.042 234.891,47.768 234.664,47.283 234.537 C 46.797 234.411,46.400 234.154,46.400 233.967 C 46.400 233.781,46.040 233.435,45.600 233.200 C 45.160 232.965,44.801 232.913,44.803 233.086 M247.900 235.006 C 246.635 235.999,245.600 236.899,245.600 237.005 C 245.600 237.112,246.680 236.360,248.000 235.335 C 250.127 233.684,250.649 233.199,250.300 233.200 C 250.245 233.200,249.165 234.013,247.900 235.006 M289.600 234.632 C 287.392 236.379,286.570 237.232,288.200 236.085 C 289.802 234.958,291.850 233.231,291.600 233.218 C 291.490 233.212,290.590 233.849,289.600 234.632 M53.200 239.264 C 53.750 239.808,54.336 240.185,54.503 240.101 C 54.669 240.018,54.914 240.231,55.046 240.575 C 55.178 240.919,55.536 241.200,55.843 241.200 C 56.149 241.200,56.400 241.347,56.400 241.526 C 56.400 241.897,59.631 243.702,59.869 243.464 C 59.955 243.379,59.569 243.010,59.012 242.645 C 58.456 242.280,57.997 242.121,57.994 242.291 C 57.991 242.461,57.856 242.414,57.694 242.187 C 57.393 241.763,53.877 239.187,52.800 238.601 C 52.470 238.421,52.650 238.719,53.200 239.264 M303.600 242.199 C 303.600 242.465,310.849 246.085,311.026 245.907 C 311.104 245.829,309.466 244.919,307.384 243.885 C 305.303 242.851,303.600 242.092,303.600 242.199 M290.800 244.400 C 290.800 244.620,291.328 244.800,291.974 244.800 C 292.620 244.800,293.610 244.976,294.174 245.190 C 295.751 245.790,295.390 245.290,293.751 244.605 C 292.085 243.909,290.800 243.820,290.800 244.400 M62.494 245.290 C 63.682 246.300,66.000 247.747,66.000 247.479 C 66.000 247.388,64.965 246.649,63.700 245.837 C 62.435 245.025,61.892 244.779,62.494 245.290 M271.100 246.229 C 269.605 247.040,269.696 247.378,271.200 246.600 C 271.860 246.259,272.400 245.894,272.400 245.790 C 272.400 245.532,272.357 245.547,271.100 246.229 M72.800 251.483 C 72.800 251.664,73.700 252.295,74.800 252.885 C 77.407 254.283,77.407 253.741,74.800 252.277 C 73.700 251.659,72.800 251.302,72.800 251.483 M314.200 252.614 C 314.860 252.917,315.670 253.158,316.000 253.152 C 316.330 253.145,315.970 252.897,315.200 252.600 C 313.374 251.897,312.655 251.907,314.200 252.614 M331.000 252.800 C 331.440 252.989,332.070 253.144,332.400 253.144 C 332.778 253.144,332.704 253.017,332.200 252.800 C 331.760 252.611,331.130 252.456,330.800 252.456 C 330.422 252.456,330.496 252.583,331.000 252.800 M218.291 254.775 C 214.728 256.963,213.621 257.900,216.600 256.204 C 219.602 254.496,221.600 253.213,221.600 252.995 C 221.600 252.729,221.769 252.638,218.291 254.775 M256.000 253.800 C 255.450 254.114,255.180 254.372,255.400 254.372 C 255.620 254.372,256.250 254.114,256.800 253.800 C 257.350 253.486,257.620 253.228,257.400 253.228 C 257.180 253.228,256.550 253.486,256.000 253.800 M317.200 253.600 C 317.953 254.087,322.034 255.300,322.236 255.097 C 322.397 254.937,317.529 253.196,316.947 253.206 C 316.756 253.209,316.870 253.387,317.200 253.600 M333.236 253.370 C 333.525 253.658,343.287 256.046,343.462 255.871 C 343.608 255.725,334.044 253.200,333.344 253.200 C 333.191 253.200,333.143 253.276,333.236 253.370 M79.775 255.159 C 79.930 255.410,80.989 256.081,82.128 256.651 C 84.604 257.888,84.190 257.382,81.447 255.818 C 80.372 255.205,79.620 254.909,79.775 255.159 M93.604 262.295 C 93.606 262.463,94.326 262.902,95.204 263.270 C 96.082 263.639,96.800 263.774,96.800 263.570 C 96.800 263.367,96.732 263.200,96.649 263.200 C 96.566 263.200,95.846 262.928,95.049 262.595 C 94.252 262.262,93.602 262.127,93.604 262.295 M203.900 262.827 C 203.075 263.263,202.400 263.708,202.400 263.818 C 202.400 263.927,203.120 263.649,204.000 263.200 C 204.880 262.751,205.600 262.297,205.600 262.192 C 205.600 261.930,205.597 261.931,203.900 262.827 M379.300 262.287 C 379.905 262.378,380.895 262.378,381.500 262.287 C 382.105 262.195,381.610 262.120,380.400 262.120 C 379.190 262.120,378.695 262.195,379.300 262.287 M385.705 262.287 C 386.314 262.379,387.214 262.377,387.705 262.282 C 388.197 262.187,387.700 262.111,386.600 262.114 C 385.500 262.117,385.097 262.195,385.705 262.287 M228.800 264.800 C 226.490 265.654,224.804 266.363,225.052 266.376 C 225.529 266.401,233.262 263.672,233.560 263.373 C 233.957 262.976,232.773 263.331,228.800 264.800 M347.800 264.026 C 349.340 264.441,350.775 264.727,350.988 264.661 C 351.437 264.522,346.292 263.182,345.518 263.236 C 345.233 263.256,346.260 263.612,347.800 264.026 M351.000 263.776 C 351.660 264.099,352.043 264.372,351.851 264.382 C 351.659 264.392,351.703 264.642,351.948 264.937 C 352.193 265.232,352.275 265.592,352.130 265.737 C 351.985 265.882,352.077 266.000,352.333 266.000 C 352.590 266.000,352.800 265.730,352.800 265.400 C 352.800 265.070,352.626 264.800,352.413 264.800 C 352.199 264.800,352.129 264.530,352.255 264.200 C 352.398 263.828,352.253 263.600,351.876 263.600 C 351.540 263.600,350.936 263.507,350.533 263.394 C 350.130 263.281,350.340 263.453,351.000 263.776 M100.974 265.558 C 101.097 265.758,101.780 266.124,102.490 266.371 C 103.988 266.894,103.535 266.379,101.875 265.673 C 101.256 265.409,100.850 265.358,100.974 265.558 M107.200 271.301 C 107.200 271.602,107.525 272.198,107.922 272.625 C 108.320 273.051,108.666 273.576,108.692 273.790 C 108.719 274.005,108.957 274.252,109.223 274.341 C 109.509 274.436,109.405 273.993,108.966 273.251 C 108.560 272.563,108.076 272.000,107.890 272.000 C 107.705 272.000,107.656 271.832,107.783 271.628 C 107.909 271.423,107.830 271.142,107.607 271.004 C 107.383 270.866,107.200 270.999,107.200 271.301 M204.200 272.800 C 203.696 273.017,203.622 273.144,204.000 273.144 C 204.330 273.144,204.960 272.989,205.400 272.800 C 205.904 272.583,205.978 272.456,205.600 272.456 C 205.270 272.456,204.640 272.611,204.200 272.800 M180.200 274.389 C 178.440 275.237,177.116 275.946,177.257 275.965 C 177.398 275.984,179.018 275.294,180.857 274.430 C 182.696 273.567,184.020 272.858,183.800 272.854 C 183.580 272.850,181.960 273.541,180.200 274.389 M200.000 274.026 C 198.580 274.509,198.292 274.690,199.186 274.537 C 200.810 274.258,203.676 273.251,202.800 273.267 C 202.470 273.273,201.210 273.615,200.000 274.026 M346.253 275.591 C 345.674 276.467,345.200 277.317,345.200 277.480 C 345.200 277.644,345.442 277.423,345.739 276.989 C 347.041 275.081,347.678 274.000,347.499 274.000 C 347.393 274.000,346.832 274.716,346.253 275.591 M123.536 278.700 C 123.970 279.305,124.984 280.520,125.788 281.400 C 126.596 282.284,126.313 281.792,125.153 280.300 C 123.083 277.635,122.002 276.565,123.536 278.700 M340.827 283.162 C 340.372 283.801,340.000 284.466,340.000 284.639 C 340.000 284.813,340.450 284.345,341.000 283.600 C 341.550 282.855,342.000 282.190,342.000 282.122 C 342.000 281.744,341.557 282.137,340.827 283.162 M127.200 283.325 C 127.200 283.394,127.785 283.979,128.500 284.625 L 129.800 285.800 128.625 284.500 C 127.530 283.288,127.200 283.016,127.200 283.325 M149.601 283.304 C 149.712 283.432,150.612 283.811,151.601 284.147 C 153.108 284.659,153.274 284.665,152.624 284.179 C 152.196 283.861,151.626 283.600,151.356 283.600 C 151.086 283.600,150.536 283.481,150.133 283.336 C 149.730 283.191,149.491 283.177,149.601 283.304 M157.400 283.882 C 156.732 284.244,156.420 284.606,156.696 284.698 C 156.969 284.789,157.668 284.490,158.250 284.032 C 159.504 283.045,159.082 282.971,157.400 283.882 M326.975 285.700 L 325.800 287.000 327.100 285.825 C 327.815 285.179,328.400 284.594,328.400 284.525 C 328.400 284.216,328.070 284.488,326.975 285.700 M116.800 285.600 C 117.035 286.040,117.403 286.400,117.617 286.400 C 117.833 286.400,117.784 286.043,117.507 285.600 C 117.232 285.160,116.865 284.800,116.690 284.800 C 116.515 284.800,116.565 285.160,116.800 285.600 M130.800 287.400 C 131.546 288.170,132.247 288.800,132.357 288.800 C 132.467 288.800,131.946 288.170,131.200 287.400 C 130.454 286.630,129.753 286.000,129.643 286.000 C 129.533 286.000,130.054 286.630,130.800 287.400 M320.594 292.500 L 315.400 297.800 320.700 292.606 C 325.623 287.781,326.181 287.200,325.894 287.200 C 325.836 287.200,323.451 289.585,320.594 292.500 M334.955 290.612 C 334.590 291.169,334.393 291.726,334.516 291.850 C 334.640 291.973,335.029 291.518,335.381 290.837 C 336.152 289.346,335.879 289.202,334.955 290.612 M123.150 293.088 C 124.100 294.467,124.800 295.065,124.800 294.498 C 124.800 294.307,124.229 293.621,123.532 292.975 L 122.264 291.800 123.150 293.088 M332.017 293.842 C 331.320 294.635,330.867 295.400,331.010 295.542 C 331.152 295.684,331.623 295.350,332.056 294.800 C 332.489 294.250,333.102 293.485,333.418 293.100 C 334.526 291.750,333.269 292.415,332.017 293.842 M136.833 293.700 C 136.925 293.755,137.540 294.250,138.200 294.800 L 139.400 295.800 138.430 294.700 C 137.897 294.095,137.282 293.600,137.064 293.600 C 136.845 293.600,136.742 293.645,136.833 293.700 M140.800 297.400 C 141.546 298.170,142.247 298.800,142.357 298.800 C 142.467 298.800,141.946 298.170,141.200 297.400 C 140.454 296.630,139.753 296.000,139.643 296.000 C 139.533 296.000,140.054 296.630,140.800 297.400 M322.577 303.415 C 320.751 305.072,320.710 305.147,322.044 304.398 C 323.577 303.537,325.053 302.120,324.741 301.808 C 324.638 301.705,323.665 302.428,322.577 303.415 M135.000 304.966 C 135.660 305.495,136.270 305.859,136.357 305.774 C 136.573 305.562,134.694 304.029,134.200 304.015 C 133.980 304.009,134.340 304.437,135.000 304.966 M149.344 304.309 C 149.660 304.821,152.000 306.553,152.000 306.275 C 152.000 306.176,151.339 305.591,150.532 304.975 C 149.724 304.359,149.189 304.059,149.344 304.309 M314.400 310.249 C 311.930 312.181,311.745 312.392,312.755 312.128 C 313.234 312.002,313.809 311.558,314.033 311.139 C 314.257 310.720,314.591 310.471,314.776 310.585 C 314.961 310.700,315.406 310.345,315.765 309.797 C 316.585 308.545,316.573 308.549,314.400 310.249 M143.200 311.560 C 143.200 311.787,143.594 312.183,144.075 312.440 C 144.941 312.903,145.474 313.300,146.617 314.332 C 146.942 314.625,147.404 314.799,147.644 314.719 C 147.885 314.638,146.983 313.803,145.641 312.861 C 144.298 311.919,143.200 311.334,143.200 311.560 M292.600 313.651 C 289.094 315.666,288.143 316.550,291.430 314.739 C 293.895 313.380,295.964 312.042,295.600 312.042 C 295.490 312.042,294.140 312.766,292.600 313.651 M310.177 313.409 C 309.268 314.152,309.160 314.375,309.700 314.386 C 310.085 314.394,310.400 314.214,310.400 313.987 C 310.400 313.760,310.791 313.430,311.268 313.253 C 311.746 313.076,311.961 312.823,311.745 312.690 C 311.530 312.557,310.824 312.880,310.177 313.409 M164.400 314.179 C 164.400 314.289,164.940 314.659,165.600 315.000 C 166.260 315.341,166.800 315.531,166.800 315.421 C 166.800 315.311,166.260 314.941,165.600 314.600 C 164.940 314.259,164.400 314.069,164.400 314.179 M152.400 318.020 C 153.787 318.961,154.578 319.235,153.600 318.436 C 153.050 317.986,152.420 317.617,152.200 317.615 C 151.980 317.613,152.070 317.796,152.400 318.020 M155.045 319.774 C 155.177 320.116,155.446 320.295,155.645 320.172 C 155.843 320.050,156.108 320.217,156.234 320.544 C 156.504 321.248,157.491 321.700,157.771 321.247 C 157.879 321.072,157.256 320.529,156.387 320.041 C 155.160 319.351,154.860 319.292,155.045 319.774 M160.400 322.726 C 160.400 323.131,162.416 324.117,162.689 323.844 C 162.791 323.742,162.318 323.371,161.637 323.019 C 160.957 322.667,160.400 322.535,160.400 322.726 M182.824 322.747 C 183.664 323.296,189.643 325.290,189.845 325.088 C 189.981 324.952,188.684 324.481,183.000 322.604 C 182.356 322.391,182.322 322.419,182.824 322.747 M293.700 323.709 C 292.325 324.403,291.200 325.081,291.200 325.215 C 291.200 325.549,295.915 323.262,296.210 322.784 C 296.523 322.278,296.578 322.257,293.700 323.709 M270.875 323.473 C 269.926 323.809,269.221 324.154,269.307 324.241 C 269.490 324.423,273.200 323.205,273.200 322.962 C 273.200 322.712,272.745 322.812,270.875 323.473 M267.000 324.800 C 266.496 325.017,266.422 325.144,266.800 325.144 C 267.130 325.144,267.760 324.989,268.200 324.800 C 268.704 324.583,268.778 324.456,268.400 324.456 C 268.070 324.456,267.440 324.611,267.000 324.800 M191.000 325.600 C 191.440 325.789,192.070 325.944,192.400 325.944 C 192.778 325.944,192.704 325.817,192.200 325.600 C 191.760 325.411,191.130 325.256,190.800 325.256 C 190.422 325.256,190.496 325.383,191.000 325.600 M288.800 326.200 C 287.810 326.730,287.142 327.172,287.316 327.182 C 287.741 327.206,290.800 325.634,290.800 325.392 C 290.800 325.127,290.817 325.120,288.800 326.200 M176.400 330.343 C 176.400 330.754,177.612 331.322,177.892 331.042 C 177.989 330.944,177.693 330.664,177.234 330.418 C 176.775 330.173,176.400 330.139,176.400 330.343 M273.300 332.499 C 272.585 332.728,272.000 333.060,272.000 333.237 C 272.000 333.597,274.390 332.882,274.980 332.345 C 275.459 331.910,275.007 331.951,273.300 332.499 M182.400 332.520 C 182.400 332.632,183.210 333.001,184.200 333.338 C 185.190 333.675,186.000 333.805,186.000 333.626 C 186.000 333.447,185.505 333.200,184.900 333.078 C 184.295 332.956,183.485 332.734,183.100 332.585 C 182.715 332.436,182.400 332.407,182.400 332.520 M217.600 340.000 C 217.600 340.220,217.960 340.400,218.400 340.400 C 218.840 340.400,219.200 340.220,219.200 340.000 C 219.200 339.780,218.840 339.600,218.400 339.600 C 217.960 339.600,217.600 339.780,217.600 340.000 M237.600 340.000 C 237.600 340.220,237.870 340.400,238.200 340.400 C 238.530 340.400,238.800 340.220,238.800 340.000 C 238.800 339.780,238.530 339.600,238.200 339.600 C 237.870 339.600,237.600 339.780,237.600 340.000 " stroke="none" fill="#8e8d8d" fill-rule="evenodd"></path><path id="path4" d="M299.776 79.413 C 300.204 79.736,300.733 80.000,300.953 80.000 C 301.173 80.000,301.004 79.736,300.576 79.413 C 300.149 79.090,299.620 78.825,299.400 78.825 C 299.180 78.825,299.349 79.090,299.776 79.413 M220.400 86.403 C 218.750 86.544,220.910 86.576,225.200 86.475 C 229.490 86.374,233.075 86.226,233.167 86.146 C 233.424 85.921,223.767 86.115,220.400 86.403 M233.633 86.544 C 233.725 86.624,235.780 86.782,238.200 86.895 C 241.010 87.027,241.949 86.986,240.800 86.781 C 239.000 86.459,233.319 86.272,233.633 86.544 M214.900 87.076 C 215.285 87.176,215.915 87.176,216.300 87.076 C 216.685 86.975,216.370 86.893,215.600 86.893 C 214.830 86.893,214.515 86.975,214.900 87.076 M209.800 87.600 C 208.137 88.023,209.774 88.042,211.800 87.623 C 213.145 87.345,213.209 87.292,212.200 87.293 C 211.540 87.294,210.460 87.432,209.800 87.600 M109.905 93.083 C 110.402 93.179,111.122 93.175,111.505 93.075 C 111.887 92.975,111.480 92.896,110.600 92.901 C 109.720 92.905,109.407 92.987,109.905 93.083 M133.905 93.083 C 134.402 93.179,135.122 93.175,135.505 93.075 C 135.887 92.975,135.480 92.896,134.600 92.901 C 133.720 92.905,133.407 92.987,133.905 93.083 M183.307 95.351 C 180.510 96.610,178.786 97.653,180.808 96.862 C 182.851 96.064,186.985 94.059,186.600 94.054 C 186.380 94.050,184.898 94.634,183.307 95.351 M271.158 94.837 C 272.125 95.266,272.988 95.545,273.075 95.458 C 273.248 95.286,270.165 93.982,269.692 94.028 C 269.531 94.044,270.191 94.408,271.158 94.837 M273.633 95.754 C 274.040 96.131,282.800 100.386,282.800 100.207 C 282.800 99.985,274.176 95.600,273.740 95.600 C 273.590 95.600,273.542 95.669,273.633 95.754 M177.100 98.226 C 176.055 98.770,175.200 99.305,175.200 99.414 C 175.200 99.593,179.160 97.723,179.567 97.352 C 180.062 96.901,178.761 97.362,177.100 98.226 M326.788 100.142 C 328.212 101.604,329.452 102.800,329.543 102.800 C 329.835 102.800,325.857 98.623,325.012 98.042 C 324.565 97.735,325.365 98.680,326.788 100.142 M285.000 101.470 C 285.600 102.067,294.800 108.011,294.800 107.802 C 294.800 107.595,288.610 103.428,286.200 102.012 C 285.320 101.495,284.780 101.251,285.000 101.470 M164.895 105.411 C 163.743 106.186,162.800 106.908,162.800 107.015 C 162.800 107.121,163.790 106.551,165.000 105.747 C 166.922 104.471,167.487 104.000,167.095 104.000 C 167.037 104.000,166.047 104.635,164.895 105.411 M318.000 104.910 C 318.000 104.971,319.395 106.366,321.100 108.010 L 324.200 111.000 321.210 107.900 C 318.433 105.021,318.000 104.617,318.000 104.910 M157.400 111.044 L 155.800 112.476 157.500 111.204 C 158.963 110.110,159.491 109.583,159.100 109.606 C 159.045 109.609,158.280 110.256,157.400 111.044 M301.600 113.204 C 302.590 114.132,304.660 115.968,306.200 117.285 C 308.660 119.389,308.733 119.428,306.800 117.606 C 305.590 116.465,303.520 114.628,302.200 113.524 C 300.353 111.980,300.215 111.907,301.600 113.204 M150.204 117.300 C 143.995 123.202,131.661 138.000,132.951 138.000 C 133.058 138.000,134.190 136.515,135.468 134.700 C 139.440 129.058,145.238 122.404,150.627 117.303 C 153.472 114.610,155.701 112.405,155.579 112.403 C 155.458 112.402,153.039 114.605,150.204 117.300 M313.177 124.600 C 316.167 127.926,316.746 128.470,315.304 126.600 C 314.626 125.720,313.384 124.370,312.545 123.600 C 311.547 122.684,311.765 123.030,313.177 124.600 M323.422 138.300 C 325.529 141.548,326.122 142.400,326.277 142.400 C 326.469 142.400,326.367 142.220,324.510 139.300 C 323.776 138.145,323.070 137.200,322.942 137.200 C 322.813 137.200,323.029 137.695,323.422 138.300 M319.903 150.300 C 320.148 152.872,320.305 153.082,320.354 150.900 C 320.379 149.745,320.256 148.800,320.080 148.800 C 319.904 148.800,319.825 149.475,319.903 150.300 M331.634 153.000 C 331.634 153.220,331.978 154.030,332.400 154.800 C 332.822 155.570,333.166 156.020,333.166 155.800 C 333.166 155.580,332.822 154.770,332.400 154.000 C 331.978 153.230,331.634 152.780,331.634 153.000 M333.282 156.800 C 334.498 160.286,335.342 162.391,335.473 162.261 C 335.658 162.076,333.699 156.751,333.325 156.422 C 333.186 156.300,333.167 156.470,333.282 156.800 M320.128 170.000 C 320.128 171.430,320.201 172.015,320.289 171.300 C 320.378 170.585,320.378 169.415,320.289 168.700 C 320.201 167.985,320.128 168.570,320.128 170.000 M317.818 188.218 C 317.665 189.239,317.622 190.155,317.722 190.255 C 317.822 190.355,318.029 189.602,318.182 188.582 C 318.335 187.561,318.378 186.645,318.278 186.545 C 318.178 186.445,317.971 187.198,317.818 188.218 M341.320 189.200 C 341.320 190.410,341.395 190.905,341.487 190.300 C 341.578 189.695,341.578 188.705,341.487 188.100 C 341.395 187.495,341.320 187.990,341.320 189.200 M341.765 199.800 C 341.766 203.760,341.826 205.326,341.898 203.280 C 341.971 201.234,341.971 197.994,341.898 196.080 C 341.824 194.166,341.765 195.840,341.765 199.800 M316.200 195.200 C 316.048 195.891,316.007 196.541,316.109 196.642 C 316.211 196.744,316.409 196.253,316.550 195.550 C 316.883 193.883,316.560 193.560,316.200 195.200 M315.429 198.229 C 315.281 198.815,315.238 199.372,315.332 199.466 C 315.427 199.560,315.624 199.158,315.771 198.571 C 315.919 197.985,315.962 197.428,315.868 197.334 C 315.773 197.240,315.576 197.642,315.429 198.229 M282.378 203.900 L 281.000 205.400 282.500 204.022 C 283.896 202.738,284.184 202.400,283.878 202.400 C 283.812 202.400,283.137 203.075,282.378 203.900 M313.267 204.780 C 313.033 205.451,312.927 206.000,313.031 206.000 C 313.301 206.000,314.056 203.922,313.857 203.724 C 313.767 203.633,313.501 204.108,313.267 204.780 M341.272 209.844 C 341.232 210.748,341.115 212.368,341.010 213.444 L 340.820 215.400 341.217 213.600 C 341.436 212.610,341.554 210.990,341.479 210.000 L 341.344 208.200 341.272 209.844 M273.600 213.000 C 271.961 214.650,270.710 216.000,270.820 216.000 C 270.930 216.000,272.361 214.650,274.000 213.000 C 275.639 211.350,276.890 210.000,276.780 210.000 C 276.670 210.000,275.239 211.350,273.600 213.000 M307.523 217.100 C 306.449 218.350,306.125 219.099,306.945 218.433 C 307.616 217.888,308.590 216.400,308.276 216.400 C 308.192 216.400,307.853 216.715,307.523 217.100 M219.423 222.363 C 219.300 222.562,219.587 222.624,220.062 222.500 C 220.615 222.355,220.831 222.427,220.662 222.700 C 220.493 222.974,220.712 223.043,221.278 222.895 C 222.117 222.676,222.122 222.652,221.379 222.361 C 220.296 221.937,219.686 221.938,219.423 222.363 M228.198 225.203 C 228.061 225.424,228.276 225.722,228.675 225.865 C 229.074 226.007,229.563 226.213,229.762 226.323 C 229.961 226.434,229.995 226.316,229.838 226.062 C 229.681 225.808,229.283 225.600,228.953 225.600 C 228.623 225.600,228.464 225.420,228.600 225.200 C 228.736 224.980,228.757 224.800,228.647 224.800 C 228.537 224.800,228.335 224.981,228.198 225.203 M303.739 228.054 C 304.268 228.361,304.602 228.358,304.919 228.041 C 305.240 227.720,305.041 227.603,304.180 227.612 C 303.146 227.623,303.091 227.677,303.739 228.054 M326.600 232.617 C 328.766 233.452,336.212 234.742,336.575 234.346 C 336.877 234.017,336.871 233.955,336.553 234.132 C 336.307 234.270,334.147 233.938,331.753 233.395 C 327.963 232.535,325.371 232.144,326.600 232.617 M288.414 244.928 C 289.077 245.651,299.026 248.289,298.621 247.634 C 298.497 247.433,298.621 247.177,298.898 247.066 C 299.257 246.921,299.265 246.854,298.924 246.832 C 298.662 246.814,298.356 246.948,298.245 247.128 C 298.133 247.308,296.520 246.960,294.660 246.353 C 291.221 245.232,288.025 244.503,288.414 244.928 M299.700 247.465 C 298.760 247.844,299.200 248.325,301.071 248.962 C 303.283 249.716,303.200 249.707,303.200 249.200 C 303.200 248.980,302.919 248.800,302.576 248.800 C 302.184 248.800,302.064 248.615,302.253 248.300 C 302.457 247.960,302.337 247.976,301.877 248.349 C 301.290 248.825,301.200 248.805,301.200 248.200 C 301.200 247.595,301.110 247.575,300.525 248.051 C 299.934 248.532,299.883 248.513,300.113 247.900 C 300.257 247.515,300.336 247.214,300.287 247.232 C 300.239 247.249,299.975 247.354,299.700 247.465 M304.400 249.964 C 305.891 250.807,306.801 250.870,306.768 250.127 C 306.751 249.727,306.649 249.616,306.542 249.880 C 306.403 250.221,306.057 250.250,305.347 249.980 C 304.120 249.513,303.588 249.504,304.400 249.964 M308.846 250.663 C 308.820 250.921,308.403 251.047,307.900 250.949 C 306.605 250.696,312.092 252.895,318.531 255.211 C 324.638 257.407,324.400 257.340,324.400 256.850 C 324.400 256.657,323.848 256.390,323.173 256.255 C 322.499 256.120,322.049 255.844,322.174 255.642 C 322.300 255.439,322.015 255.375,321.538 255.500 C 320.985 255.645,320.769 255.573,320.938 255.300 C 321.107 255.028,320.891 254.956,320.338 255.100 C 319.695 255.268,319.558 255.192,319.799 254.801 C 320.009 254.461,319.967 254.373,319.680 254.550 C 319.113 254.901,317.141 254.419,317.403 253.995 C 317.512 253.819,317.196 253.763,316.701 253.872 C 315.953 254.036,315.902 253.990,316.400 253.602 C 316.884 253.226,316.780 253.183,315.866 253.384 C 315.136 253.544,314.823 253.486,314.987 253.221 C 315.138 252.976,314.990 252.906,314.621 253.047 C 314.278 253.179,314.000 253.076,314.000 252.819 C 314.000 252.563,313.808 252.471,313.573 252.616 C 313.339 252.761,312.875 252.547,312.544 252.140 C 312.212 251.733,312.055 251.625,312.194 251.900 C 312.333 252.175,312.257 252.400,312.024 252.400 C 311.791 252.400,311.600 252.226,311.600 252.013 C 311.600 251.799,311.330 251.729,311.000 251.855 C 310.670 251.982,310.400 251.892,310.400 251.655 C 310.400 251.419,310.146 251.323,309.835 251.442 C 309.503 251.569,309.192 251.358,309.081 250.929 C 308.978 250.528,308.872 250.408,308.846 250.663 M325.094 257.526 C 327.151 258.833,313.014 275.920,300.600 287.133 L 297.800 289.662 300.800 287.244 C 312.051 278.178,329.041 257.155,325.076 257.206 C 324.722 257.211,324.727 257.293,325.094 257.526 M382.900 262.276 C 383.285 262.376,383.915 262.376,384.300 262.276 C 384.685 262.175,384.370 262.093,383.600 262.093 C 382.830 262.093,382.515 262.175,382.900 262.276 M377.513 267.895 C 378.676 267.976,380.476 267.976,381.513 267.893 C 382.551 267.811,381.600 267.745,379.400 267.746 C 377.200 267.747,376.351 267.814,377.513 267.895 M341.275 283.184 C 340.294 284.511,340.078 285.450,341.042 284.200 C 341.778 283.245,342.484 282.000,342.289 282.000 C 342.213 282.000,341.757 282.533,341.275 283.184 M153.800 285.553 C 155.848 287.965,166.572 295.601,171.800 298.371 C 174.683 299.898,174.188 299.527,169.300 296.495 C 165.446 294.105,157.906 288.706,154.800 286.113 C 153.810 285.287,153.360 285.035,153.800 285.553 M293.400 292.454 C 286.046 297.728,275.893 303.032,266.600 306.456 C 263.740 307.510,261.616 308.378,261.880 308.386 C 263.839 308.443,278.513 302.128,284.600 298.608 C 288.835 296.160,297.321 290.236,296.324 290.423 C 296.256 290.436,294.940 291.350,293.400 292.454 M126.800 297.127 C 126.800 297.596,128.754 299.380,128.999 299.135 C 129.110 299.024,128.660 298.451,128.000 297.863 C 127.340 297.275,126.800 296.944,126.800 297.127 M174.400 299.807 C 174.400 300.033,179.062 302.403,179.489 302.393 C 179.823 302.385,176.124 300.287,175.048 299.874 C 174.692 299.737,174.400 299.707,174.400 299.807 M130.000 300.229 C 130.000 300.498,130.690 301.170,131.802 301.985 C 132.241 302.306,132.071 301.991,131.425 301.285 C 130.240 299.989,130.000 299.811,130.000 300.229 M180.231 302.777 C 180.766 303.329,190.962 307.452,192.600 307.778 C 194.192 308.095,193.469 307.765,187.400 305.405 C 184.760 304.378,181.970 303.267,181.200 302.935 C 180.430 302.604,179.994 302.532,180.231 302.777 M200.200 309.950 C 200.640 310.135,201.720 310.399,202.600 310.537 C 203.615 310.695,203.908 310.664,203.400 310.450 C 202.960 310.265,201.880 310.001,201.000 309.863 C 199.985 309.705,199.692 309.736,200.200 309.950 M250.800 310.841 C 247.782 311.525,246.672 311.884,248.000 311.746 C 250.368 311.501,256.357 310.176,256.715 309.818 C 257.062 309.472,256.125 309.634,250.800 310.841 M210.000 311.986 C 212.090 312.412,214.520 312.749,215.400 312.736 C 216.441 312.721,215.813 312.530,213.600 312.190 C 207.662 311.277,206.074 311.187,210.000 311.986 M243.700 312.276 C 244.085 312.376,244.715 312.376,245.100 312.276 C 245.485 312.175,245.170 312.093,244.400 312.093 C 243.630 312.093,243.315 312.175,243.700 312.276 M240.705 312.683 C 241.202 312.779,241.922 312.775,242.305 312.675 C 242.687 312.575,242.280 312.496,241.400 312.501 C 240.520 312.505,240.207 312.587,240.705 312.683 M219.507 313.090 C 220.226 313.179,221.306 313.177,221.907 313.086 C 222.508 312.995,221.920 312.922,220.600 312.924 C 219.280 312.926,218.788 313.001,219.507 313.090 M235.100 313.089 C 235.815 313.178,236.985 313.178,237.700 313.089 C 238.415 313.001,237.830 312.928,236.400 312.928 C 234.970 312.928,234.385 313.001,235.100 313.089 M225.700 313.497 C 227.185 313.574,229.615 313.574,231.100 313.497 C 232.585 313.420,231.370 313.357,228.400 313.357 C 225.430 313.357,224.215 313.420,225.700 313.497 M300.701 319.937 C 299.488 320.669,299.163 321.462,300.333 320.836 C 300.976 320.492,302.342 319.140,301.949 319.237 C 301.867 319.257,301.305 319.572,300.701 319.937 M280.700 329.876 C 280.315 329.976,280.000 330.209,280.000 330.392 C 280.000 330.575,280.360 330.631,280.800 330.516 C 281.240 330.401,281.600 330.148,281.600 329.953 C 281.600 329.759,281.555 329.621,281.500 329.646 C 281.445 329.672,281.085 329.775,280.700 329.876 M216.400 340.000 C 216.400 340.220,216.670 340.400,217.000 340.400 C 217.330 340.400,217.600 340.220,217.600 340.000 C 217.600 339.780,217.330 339.600,217.000 339.600 C 216.670 339.600,216.400 339.780,216.400 340.000 M238.800 340.000 C 238.800 340.220,239.070 340.400,239.400 340.400 C 239.730 340.400,240.000 340.220,240.000 340.000 C 240.000 339.780,239.730 339.600,239.400 339.600 C 239.070 339.600,238.800 339.780,238.800 340.000 M226.573 340.449 C 227.529 340.673,228.786 340.674,229.773 340.452 C 231.226 340.125,231.057 340.085,228.200 340.083 C 225.379 340.081,225.186 340.124,226.573 340.449 " stroke="none" fill="#d5949c" fill-rule="evenodd"></path></g></svg>